<svg width="928" height="536" viewBox="0 0 928 536" fill="none" xmlns="http://www.w3.org/2000/svg">
<path d="M915.429 534.092C915.429 534.092 1027.68 531.438 1075.63 463.275C1162.53 339.822 1123.37 231.585 968.682 239.635C795.63 248.659 817.002 -134.042 517.351 50.2312C452.307 90.2175 307.471 6.2197 249.625 181.248C235.848 222.871 132.564 225.79 65.7981 259.142C-38.943 311.513 -9.40181 534.932 89.5547 535.817C188.511 536.702 915.429 534.092 915.429 534.092Z" fill="url(#paint0_linear_6_248)" fill-opacity="0.5"/>
<path d="M389.522 137.92H385.8V103.948L384.641 103.856V90.3524L384.976 89.222L222.673 40.2488L154.945 86.0447L155.586 87.0224C153.389 87.0224 151.589 88.8249 151.589 91.0246V114.366C151.589 116.565 153.389 118.368 155.586 118.368H189.542C191.738 118.368 193.538 116.565 193.538 114.366V105.017H216.175V534.442H242.809V105.017H352.363L382.902 137.92H376.648C374.451 137.92 372.651 139.723 372.651 141.923V145.925C372.651 148.124 374.451 149.927 376.648 149.927H389.522C391.719 149.927 393.519 148.124 393.519 145.925V141.923C393.519 139.723 391.719 137.92 389.522 137.92ZM223.07 42.8151L380.614 90.3524H193.477C193.172 88.4583 191.525 87.0224 189.542 87.0224H157.661L223.07 42.8151ZM371.431 105.017L383.482 106.086V135.11L355.567 105.017H371.431Z" fill="#D2E4FF"/>
<path d="M328.567 534.381H211.385C217.029 530.195 237.287 515.653 255.622 507.801C263.219 504.532 270.51 502.455 276.276 502.699C294.581 503.555 320.208 526.468 328.567 534.381Z" fill="#E27F2B"/>
<path d="M291.317 534.381H174.135C182.128 528.484 219.317 501.844 239.026 502.699C244.151 502.944 249.887 504.899 255.622 507.801C270.357 515.225 285.306 528.698 291.317 534.381Z" fill="#E69D43"/>
<path d="M858.249 162.453L858.706 161.781L812.242 130.374L700.888 163.98L701.132 164.744V174.001L700.339 174.062V197.373H697.806C696.312 197.373 695.061 198.595 695.061 200.122V202.872C695.061 204.369 696.281 205.621 697.806 205.621H706.623C708.118 205.621 709.369 204.399 709.369 202.872V200.122C709.369 198.625 708.149 197.373 706.623 197.373H702.322L723.281 174.795H798.422V469.368H816.697V174.795H832.225V181.211C832.225 182.708 833.446 183.961 834.971 183.961H858.279C859.774 183.961 861.025 182.739 861.025 181.211V165.202C860.994 163.675 859.774 162.453 858.249 162.453ZM811.968 132.146L856.845 162.453H834.971C833.629 162.453 832.5 163.461 832.286 164.744H703.908L811.968 132.146ZM701.925 195.448V175.559L710.193 174.826H721.084L701.925 195.448Z" fill="#EBF2F9"/>
<path d="M637.858 55.8604H484.158V534.839H637.858V55.8604Z" fill="#D2E4FF"/>
<path opacity="0.5" d="M595.421 121.942H484.158V192.118H595.421V121.942Z" fill="#AED3FF"/>
<path opacity="0.5" d="M595.421 250.44H484.158V320.615H595.421V250.44Z" fill="#AED3FF"/>
<path opacity="0.5" d="M595.421 377.287H484.158V447.463H595.421V377.287Z" fill="#AED3FF"/>
<path d="M829.479 447.005H808.734V382.115H637.858V55.8604H595.421V535.114H637.858V534.87H808.734H829.479V447.005Z" fill="#AED3FF"/>
<path d="M900.777 536H118.763C118.336 536 118 535.664 118 535.236C118 534.809 118.336 534.472 118.763 534.472H900.777C901.204 534.472 901.54 534.809 901.54 535.236C901.57 535.633 901.204 536 900.777 536Z" fill="#283250"/>
<path d="M669.648 534.472C669.648 534.472 669.953 527.843 671.722 524.299C673.492 520.755 687.708 523.199 687.708 523.199C687.708 523.199 690.973 529.126 690.546 534.472H669.648Z" fill="#233862"/>
<path d="M631.512 534.472C631.512 534.472 631.817 527.843 633.587 524.299C635.356 520.755 649.573 523.199 649.573 523.199C649.573 523.199 652.837 529.126 652.41 534.472H631.512Z" fill="#233862"/>
<path d="M678.83 253.098C677.061 254.381 660.983 262.782 660.983 262.782L644.051 250.684C644.051 250.684 649.207 249.92 649.329 249.89C650.854 249.462 650.793 245.368 650.977 240.999C651.007 240.327 651.038 239.655 651.099 238.983L667.695 238.372V238.586C667.695 238.8 667.725 239.014 667.756 239.258L667.786 239.716C667.786 239.869 667.817 240.052 667.817 240.205C668.122 244.055 668.763 249.462 669.983 250.104C670.685 250.44 675.414 250.379 678.83 253.098Z" fill="#D9935C"/>
<path d="M667.817 240.175C666.444 242.924 663.393 247.69 658.878 247.537C654.576 247.385 652.105 243.444 650.977 240.969C651.007 240.297 651.038 239.625 651.099 238.953L667.695 238.342V238.555L667.756 239.228L667.787 239.686C667.817 239.869 667.817 240.022 667.817 240.175Z" fill="#CB7D45"/>
<path d="M649.146 201.925C649.146 201.925 657.139 193.951 666.597 202.077C666.597 202.077 660.983 200.917 649.146 201.925Z" fill="#2B478B"/>
<path d="M646.187 231.284C646.187 231.284 643.655 226.029 642.099 219.919C640.97 215.55 642.007 198.992 658.634 200.092C658.634 200.092 663.454 200.214 668.183 202.902C671.936 205.041 677.488 209.868 672.79 224.624L671.661 229.573L646.187 231.284Z" fill="#B64C41"/>
<path d="M669.464 238.219C665.163 242.344 659.824 247.812 648.322 237.669C646.065 235.684 646.217 232.628 646.095 228.26C645.943 223.066 644.692 219.919 645.271 216.925C645.973 213.351 649.024 211.732 655.339 211.182C666.963 210.173 672.851 212.801 672.058 218.575C670.319 231.498 673.827 234.064 669.464 238.219Z" fill="#D9935C"/>
<path d="M659.976 210.998C659.976 210.998 666.871 210.846 668.458 213.167C670.044 215.489 670.258 218.056 671.051 219.369C671.844 220.683 671.722 222.119 671.722 222.119L673.247 211.823L663.912 209.96L659.976 210.998Z" fill="#B64C41"/>
<path d="M700.186 267.823C700.186 267.823 697.257 276.5 685.298 278.088C684.963 278.119 684.657 278.18 684.291 278.211H635.692C635.692 278.211 635.6 278.18 635.417 278.119C633.526 277.508 621.902 273.536 620.682 266.082C620.682 266.082 626.784 253.525 631.451 251.967C632.824 251.509 634.685 251.173 636.668 250.929C638.682 250.654 640.817 250.501 642.587 250.379C645.058 250.226 646.858 250.195 646.858 250.195C646.858 250.195 650.641 257.894 659.854 257.772C669.068 257.65 671.203 250.318 671.203 250.318C671.203 250.318 673.797 250.379 677.214 250.776C679.105 250.99 681.271 251.265 683.376 251.692C686.976 252.395 690.454 253.495 692.468 255.114C697.868 259.422 700.186 267.823 700.186 267.823Z" fill="#9ED9F0"/>
<path d="M688.624 335.035C688.105 332.164 687.342 327.764 686.732 323.915C686.732 323.854 688.532 302.163 689.203 298.496C689.874 294.83 685.359 274.881 685.359 274.881C684.322 271.825 682.522 270.878 681.149 270.878L683.437 251.662C681.302 251.234 679.166 250.959 677.274 250.745L676.176 270.878L676.146 271.153C673.614 271.306 670.471 271.459 667.542 271.581C664.614 271.703 661.898 271.825 660.251 271.825C656.865 271.825 649.085 271.428 643.899 271.153L643.868 270.878L642.617 250.379C640.848 250.501 638.712 250.654 636.699 250.929L638.895 270.878C637.461 270.878 635.784 273.445 635.539 274.881L635.326 281.113C634.228 284.26 631.97 291.225 631.573 296.144C631.085 302.621 633.77 325.167 633.8 325.32C633.709 328.009 633.526 331.43 633.16 334.761C631.116 340.26 622.451 365.892 623.336 400.354C624.16 432.524 624.648 487.485 628.431 514.187C629.041 518.525 629.743 522.099 630.567 524.727C630.963 526.04 632.123 527.018 633.495 527.201C637.828 527.812 647.621 528.912 651.831 527.385C653.844 526.651 655.309 515.439 656.315 500.958C657.292 487.088 657.871 470.254 658.207 456.781C658.482 446.058 658.573 437.504 658.573 434.326C658.573 427.147 660.251 406.128 660.831 393.754C660.861 393.418 661.349 393.388 661.38 393.754C662.234 408.45 665.193 430.721 665.224 435.671C665.346 447.677 664.644 524.788 669.861 527.385C673.858 529.37 683.315 527.873 687.8 527.262C689.417 527.049 690.759 525.888 691.217 524.299C696.861 504.899 697.349 437.473 698.295 400.384C699.21 366.411 690.82 341.023 688.624 335.035Z" fill="#2B478B"/>
<path d="M644.478 348.906C642.8 350.25 637.37 349.669 635.265 347.897C633.16 346.125 628.95 346.675 627.943 346.003C627.882 345.942 608.235 322.662 606.13 312.855C603.994 302.957 617.57 275.736 621.414 268.312C624.251 274.331 633.739 277.6 635.448 278.119C635.631 278.18 635.722 278.211 635.722 278.211H636.241C633.038 286.887 623.489 302.468 619.797 308.334C618.882 309.8 618.76 311.633 619.492 313.191C624.221 323.365 628.858 331.919 630.872 337.877C631.268 338.549 632.153 339.71 633.19 339.557C634.624 339.343 639.292 338.335 641.641 341.787C643.929 345.239 646.126 347.561 644.478 348.906Z" fill="#D9935C"/>
<path d="M674.347 202.169C674.347 202.169 673.066 200.428 670.778 198.472C670.412 198.167 670.015 197.831 669.619 197.525C665.408 194.318 658.666 191.171 650.521 194.562C648.324 195.478 646.493 196.731 644.968 198.167C644.602 198.503 644.266 198.87 643.931 199.236C636.883 207.057 637.463 219.369 637.463 219.369L678.161 218.942C678.313 207.546 674.347 202.169 674.347 202.169Z" fill="#FFA412"/>
<path d="M666.749 219.064C666.627 217.353 665.865 203.3 670.776 198.472C670.41 198.167 670.502 198.197 670.075 197.892C664.827 203.422 664.492 217.261 664.492 219.064L651.495 219.217C651.099 209.226 645.607 199.297 644.936 198.197C644.57 198.534 644.509 198.595 644.173 198.961C645.119 200.642 648.719 210.265 649.055 219.247L637.431 219.369C637.431 219.369 648.261 222.18 656.437 222.058C664.614 221.966 678.129 218.911 678.129 218.911L666.749 219.064Z" fill="#E27F2B"/>
<path d="M646.004 272.986C641.855 280.991 630.017 282.488 630.017 282.488C633.861 273.139 626.143 270.206 621.353 260.644C616.594 251.081 625.014 244.757 625.014 244.757C619.797 245.765 618.79 252.762 618.79 252.762C618.333 248.087 622.238 240.205 634.563 238.647C643.594 237.517 645.76 234.462 646.278 232.903C646.492 234.92 646.98 236.478 648.322 237.669C649.268 238.525 650.183 239.227 651.068 239.869C651.038 240.236 651.038 240.602 651.007 240.969C650.946 242.191 650.915 243.413 650.854 244.513C649.238 246.438 649.299 248.484 649.573 249.768C649.756 250.562 650 251.081 650 251.081C651.282 252.884 651.953 254.656 652.136 256.428C652.715 261.713 649.146 266.998 646.004 272.986Z" fill="#B64C41"/>
<path d="M688.532 334.516L686.732 323.945C677.976 327.184 669.708 328.62 662.387 329.017C661.532 327.428 659.946 326.267 658.054 325.992L651.587 325.045C649.024 324.679 646.644 325.992 645.516 328.161C639.322 327.214 635.143 325.779 633.8 325.32V325.381L633.16 334.669V334.699C636.882 335.677 640.451 336.471 643.868 337.052L643.685 338.335C643.197 341.543 645.424 344.537 648.627 345.026L655.797 346.095C659.214 346.614 662.326 344.079 662.539 340.626L662.661 338.64C676.329 338.549 685.39 335.677 688.532 334.516Z" fill="#233862"/>
<path d="M714.677 312.855C712.542 322.662 692.925 345.942 692.864 346.003C692.681 346.126 692.437 346.187 692.101 346.248H692.071C690.454 346.523 687.281 346.4 685.542 347.867C683.437 349.639 678.007 350.189 676.329 348.875C674.651 347.531 676.878 345.209 679.227 341.757C681.546 338.304 686.213 339.313 687.647 339.526C688.502 339.649 689.234 338.885 689.691 338.243L689.722 338.213C689.813 338.091 689.874 337.968 689.966 337.846C691.949 332.041 696.434 323.701 701.04 313.833C701.956 311.847 701.834 309.556 700.674 307.692C697.593 302.743 691.308 292.508 687.281 284.26C686.824 281.877 686.335 279.646 685.969 277.936C694.817 276.5 698.478 271.123 699.667 268.801C703.878 277.019 716.783 303.201 714.677 312.855Z" fill="#D9935C"/>
<path d="M847.571 355.138C844.611 355.81 831.188 355.993 821.761 353.855C819.808 353.427 818.008 352.877 816.514 352.205C814.744 351.411 813.402 350.464 812.73 349.333C811.663 347.561 809.71 341.482 807.422 333.508C801.107 311.542 792.229 275.247 792.229 275.247C792.229 275.247 810.046 278.883 813.829 281.999C817.612 285.115 820.937 334.455 824.476 335.799C824.995 335.983 825.91 336.41 827.069 336.991C827.13 337.021 827.191 337.052 827.252 337.082C827.954 337.418 828.717 337.816 829.571 338.243C836.923 342.032 849.127 348.845 850.378 350.372C851.994 352.358 851.903 354.13 847.571 355.138Z" fill="#739AF0"/>
<path d="M813.371 303.323C813.371 302.468 813.28 301.643 813.127 300.788C810.839 288.14 792.595 275.217 792.229 275.217V275.492C792.229 277.416 789.178 280.991 784.511 281.296C778.958 281.663 772.094 278.486 772.094 275.278C772.063 275.278 768.982 275.705 767.914 275.828C763.46 276.347 754.582 278.73 750.769 281.632C747.138 284.382 752.263 301.643 755.436 313.864C756.779 319.027 757.755 323.304 757.602 325.198C757.511 326.115 756.687 338.671 755.955 350.005C755.345 359.354 754.796 367.908 754.765 368.458C754.735 369.528 760.012 373.255 768.86 376.065C770.995 376.738 773.345 377.379 775.877 377.899C780.422 378.846 785.578 379.426 791.161 379.426C792.992 379.426 794.731 379.334 796.378 379.151C809.1 377.868 813.432 363.417 813.371 303.323Z" fill="#739AF0"/>
<path d="M772.094 275.155C771.972 270.237 772.063 264.402 772.734 259.452L792.29 262.66C792.29 262.66 792.321 268.648 792.229 275.278C792.229 275.278 792.748 281.418 785.182 282.335C777.616 283.19 771.88 279.891 772.094 275.155Z" fill="#D9935C"/>
<path d="M788.446 534.472C785.975 532.945 787.439 521.733 787.439 521.733C787.439 521.733 798.971 512.567 800.497 519.625C802.053 526.682 811.358 529.859 816.666 530.745C820.327 531.356 821.669 533.25 822.036 534.442L788.446 534.472Z" fill="#233862"/>
<path d="M770.538 341.36C770.538 360.148 761.446 355.077 755.955 350.005C756.687 338.671 757.206 298.466 757.206 298.466C757.206 298.466 770.538 314.444 770.538 341.36Z" fill="#4A75CB"/>
<path d="M829.54 338.213C829.174 340.84 825.025 348.508 821.761 353.855C819.808 353.427 818.008 352.877 816.513 352.205C814.744 351.411 813.402 350.464 812.73 349.333C811.663 347.561 809.71 341.482 807.422 333.508C809.131 323.701 810.717 313.986 810.717 313.986L811.205 307.478C811.205 307.967 818.802 336.532 822.249 337.205C824.324 337.602 825.788 337.113 827.039 336.93C827.1 336.96 827.161 336.991 827.222 337.021C827.923 337.388 828.686 337.785 829.54 338.213Z" fill="#4A75CB"/>
<path d="M753.179 534.472C750.708 532.945 752.172 521.733 752.172 521.733C752.172 521.733 763.704 512.567 765.229 519.625C766.785 526.682 776.09 529.859 781.399 530.745C785.06 531.356 786.402 533.25 786.738 534.442L753.179 534.472Z" fill="#233862"/>
<path d="M770.233 253.77C770.233 253.77 757.175 233.148 782.253 231.804C782.253 231.804 791.649 232.903 793.785 230.795C793.785 230.795 801.076 241.885 794.273 253.8C787.439 265.685 770.233 253.77 770.233 253.77Z" fill="#233862"/>
<path d="M791.71 264.524C789.819 266.021 784.236 267.518 782.619 267.67C782.619 267.67 774.351 265.837 772.856 264.921C770.538 263.516 770.69 260.644 770.568 256.672C770.416 251.967 769.958 248.271 770.477 245.552C771.087 242.313 773.162 240.45 778.897 239.961C789.453 239.044 793.846 241.702 794.029 245.246C794.09 246.193 794.12 247.11 794.151 247.965C794.578 259.055 793.724 262.966 791.71 264.524Z" fill="#D9935C"/>
<path d="M794.243 251.631C794.151 258.047 792.412 261.835 791.161 262.294C789.727 262.843 788.019 263.302 786.28 263.607C785.7 263.668 785.121 263.668 785.121 263.332C785.151 262.324 786.494 261.071 785.487 260.186C784.45 259.238 778.806 258.933 778.348 260.98C778.134 261.988 779.934 263.729 778.684 263.791C778.317 263.729 777.921 263.668 777.585 263.546C775.541 262.996 773.924 262.049 773.253 261.621C770.934 260.216 771.087 258.047 770.568 254.106C770.233 251.57 770.233 252.945 770.568 256.733C770.904 260.705 770.233 263.241 772.856 264.982C774.321 265.96 782.741 269.748 782.741 269.748C782.619 267.732 789.788 266.082 791.711 264.585C793.48 263.149 794.365 259.941 794.243 251.631Z" fill="#233862"/>
<path d="M754.796 368.428C754.765 369.497 760.043 373.224 768.89 376.035C769.592 376.249 770.355 376.493 771.117 376.707C771.117 376.707 771.148 376.707 771.148 376.738C771.972 386.453 774.229 400.17 776.243 413.429C776.761 416.851 777.28 420.273 777.738 423.542C778.958 432.249 779.904 440.192 779.995 445.905V445.966C780.026 448.594 777.829 455.131 777.677 456.628C777.585 457.545 777.494 458.523 777.433 459.561C777.189 463.655 777.28 468.482 777.616 473.645C779.05 496.161 784.999 525.002 787.134 526.224C791.344 528.668 799.032 526.224 802.907 525.643C804.524 525.399 805.805 524.024 805.744 522.405C803.853 485.01 809.314 432.951 813.402 400.965C813.493 400.14 813.615 399.315 813.707 398.52C814.195 394.732 814.53 391.219 814.713 388.041C814.897 385.261 814.988 382.726 815.019 380.526C815.019 379.854 815.049 379.182 815.049 378.571C815.049 376.554 813.463 363.448 813.402 303.354C813.402 301.979 812.273 300.818 810.87 300.818H774.168C770.629 300.818 767.762 303.721 767.823 307.265C767.884 311.847 767.701 318.263 766.724 324.343C765.382 332.683 762.484 340.474 756.474 342.368C756.443 342.429 756.291 342.795 756.016 343.406C755.955 344.903 755.894 346.462 755.833 348.02C755.833 348.325 755.802 348.661 755.802 348.967C755.802 349.15 755.772 349.333 755.772 349.517C755.772 349.822 755.741 350.158 755.711 350.464C755.68 350.983 755.65 351.533 755.619 352.052C755.589 352.48 755.558 352.908 755.558 353.305C755.528 354.13 755.467 354.955 755.406 355.78C755.406 356.055 755.375 356.299 755.345 356.574C755.284 357.643 755.192 358.743 755.131 359.843C755.101 360.179 755.07 360.515 755.04 360.851C755.04 361.004 755.009 361.187 755.009 361.34C754.979 361.768 754.948 362.195 754.918 362.623C754.887 363.081 754.826 363.54 754.796 363.998C754.613 365.739 754.826 367.267 754.796 368.428Z" fill="#2B478B"/>
<path d="M777.585 473.645C779.019 496.161 784.968 525.002 787.104 526.224C791.314 528.668 799.002 526.224 802.876 525.643C804.493 525.399 805.775 524.024 805.714 522.405C803.822 485.01 809.283 432.951 813.371 400.965C813.463 400.14 813.585 399.315 813.676 398.52C814.164 394.732 814.5 391.219 814.683 388.041C812.73 375.363 801.778 374.66 791.802 400.934C793.053 409.61 777.25 468.482 777.585 473.645Z" fill="#233862"/>
<path d="M754.368 444.836C754.063 447.433 751.013 453.634 750.646 455.101C745.613 475.356 748.389 523.413 750.891 525.338C754.735 528.301 762.667 526.896 766.602 526.835C768.25 526.804 769.684 525.613 769.836 523.993C772.917 485.713 785.761 433.135 793.998 402.217C798.148 386.636 798.727 375.18 798.727 375.18C798.727 375.18 760.195 351.533 756.046 364.456C752.355 375.882 756.687 424.855 754.368 444.836Z" fill="#2B478B"/>
<path d="M793.632 226.029C793.358 225.724 793.083 225.449 792.778 225.143C791.527 223.952 790.002 222.913 788.202 222.149C781.49 219.339 775.907 221.936 772.429 224.594C772.094 224.838 771.758 225.113 771.453 225.388C769.561 227.007 768.494 228.443 768.494 228.443C768.494 228.443 765.229 232.903 765.351 242.283L798.971 242.649C798.941 242.649 799.429 232.506 793.632 226.029Z" fill="#FFA412"/>
<path d="M774.778 242.405L776.639 242.435C776.67 241.885 776.578 229.696 772.033 224.93C771.697 225.174 771.758 225.143 771.453 225.388C775.755 229.573 774.778 242.283 774.778 242.405Z" fill="#E27F2B"/>
<path d="M789.392 242.559C789.788 235.074 792.626 227.222 793.419 225.817C793.144 225.512 793.083 225.45 792.809 225.175C792.26 226.092 787.897 234.249 787.439 242.528L765.382 242.284C765.382 242.284 776.548 244.789 783.29 244.881C790.033 244.973 798.971 242.651 798.971 242.651L789.392 242.559Z" fill="#E27F2B"/>
<path d="M766.602 276.011C766.602 276.011 777.951 289.27 778.622 300.818L772.826 301.124C772.826 301.124 771.362 288.262 762.819 276.805C762.819 276.805 764.162 276.469 764.589 276.378C765.229 276.255 766.602 276.011 766.602 276.011Z" fill="#2B478B"/>
<path d="M794.914 275.828C803.059 288.14 803.914 301.063 803.914 301.063L809.741 300.971C809.253 291.897 803.548 281.877 800.405 277.172C800.436 277.141 796.409 276.133 794.914 275.828Z" fill="#2B478B"/>
<path d="M782.253 402.95H777.555C775.389 401.973 763.643 396.871 752.355 396.81C744.209 396.779 734.935 402.859 734.386 402.92C732.982 403.073 739.114 403.134 739.114 403.134C739.114 403.134 748.297 399.07 752.447 398.979C756.382 398.887 765.107 401.759 768.616 402.95H742.348C740.152 402.95 738.352 404.753 738.352 406.953V436.954C738.352 439.153 740.152 440.956 742.348 440.956H782.314C784.51 440.956 786.31 439.153 786.31 436.954V406.953C786.249 404.753 784.449 402.95 782.253 402.95Z" fill="#FFA412"/>
<path d="M769.256 402.95H729.291C727.094 402.95 725.294 404.753 725.294 406.953V436.954C725.294 439.153 727.094 440.956 729.291 440.956H769.256C771.453 440.956 773.253 439.153 773.253 436.954V406.953C773.253 404.753 771.453 402.95 769.256 402.95Z" fill="#E27F2B"/>
<path d="M757.511 347.103C757.785 360.668 756.107 387.675 756.107 387.675H748.114C744.331 368.672 743.019 356.452 743.019 349.761C743.019 348.447 743.019 347.225 743.05 346.095C743.111 340.412 743.263 337.082 743.263 337.082C741.769 302.59 748.633 284.137 750.799 281.571C752.965 279.035 762.85 276.744 762.85 276.744C762.85 276.744 766.114 286.276 767.457 293.944C768.799 301.613 756.992 333.844 757.48 344.842C757.48 345.576 757.511 346.339 757.511 347.103Z" fill="#739AF0"/>
<path d="M861.238 356.36H854.771C854.13 356.36 853.611 356.879 853.611 357.521V533.739C853.611 534.381 854.13 534.9 854.771 534.9H861.238C861.879 534.9 862.398 534.381 862.398 533.739V357.521C862.398 356.879 861.879 356.36 861.238 356.36Z" fill="#F1A34F"/>
<path d="M861.238 356.36H854.771C854.13 356.36 853.611 356.879 853.611 357.521V362.99H862.398V357.521C862.398 356.879 861.879 356.36 861.238 356.36Z" fill="#2B478B"/>
<path d="M853.611 533.739C853.611 534.381 854.13 534.9 854.771 534.9H861.238C861.879 534.9 862.398 534.381 862.398 533.739V529.034H853.611V533.739Z" fill="#2B478B"/>
<path d="M858.066 367.908C857.7 367.908 857.394 368.214 857.394 368.58V523.688C857.394 524.055 857.7 524.36 858.066 524.36C858.432 524.36 858.737 524.055 858.737 523.688V368.58C858.737 368.183 858.432 367.908 858.066 367.908Z" fill="#E27F2B"/>
<path d="M756.107 387.675C756.107 387.675 757.785 360.668 757.511 347.103C751.135 345.026 745.979 345.484 743.019 346.095C743.019 347.225 742.989 348.447 742.989 349.761C742.989 356.421 744.331 368.642 748.084 387.675C746.406 394.671 746.528 402.248 749.426 403.561C752.324 404.875 761.843 399.895 761.751 397.665C761.66 395.465 756.107 387.675 756.107 387.675Z" fill="#D9935C"/>
<path d="M865.448 356.452C864.655 353.58 864.076 351.991 862.123 350.616C859.255 348.6 855.869 349.15 853.337 349.578C851.415 349.914 849.371 349.272 848.547 348.936C844.062 345.942 832.835 339.801 827.222 337.021C823.408 339.251 818.71 343.62 816.513 352.175C825.117 355.993 843.971 355.902 847.571 355.077C847.571 355.077 850.896 357.49 853.428 357.704C854.374 357.796 855.594 357.521 856.723 357.124C858.493 356.543 860.415 357.124 861.696 358.712C862.916 360.24 864.533 361.065 865.204 361.065C866.211 361.126 865.937 358.254 865.448 356.452Z" fill="#D9935C"/>
<path d="M187.101 391.158H147.135C144.939 391.158 143.139 392.96 143.139 395.16V425.161C143.139 427.361 144.939 429.163 147.135 429.163H187.101C189.297 429.163 191.097 427.361 191.097 425.161V395.16C191.097 392.96 189.297 391.158 187.101 391.158Z" fill="#FFA412"/>
<path d="M200.067 391.158H160.101C157.905 391.158 156.105 392.96 156.105 395.16V425.161C156.105 427.361 157.905 429.163 160.101 429.163H200.067C202.263 429.163 204.063 427.361 204.063 425.161V395.16C204.063 392.96 202.263 391.158 200.067 391.158Z" fill="#E27F2B"/>
<path d="M151.467 391.341C151.467 391.341 160.955 384.345 162.359 384.498C163.762 384.65 166.02 385.17 166.02 385.17L157.538 391.585L151.467 391.341Z" fill="#FFA412"/>
<path d="M226.365 280.746C222.551 277.875 213.673 275.461 209.219 274.942C208.182 274.819 205.04 274.819 205.009 274.819C205.009 278.027 198.206 280.777 192.653 280.441C187.986 280.135 184.935 276.561 184.935 274.636C184.569 274.636 166.325 287.315 164.037 299.963C163.884 300.818 163.793 301.643 163.793 302.499C163.732 362.592 160.071 371.819 161.23 371.788C161.23 371.788 168.064 377.043 180.725 378.296C182.372 378.448 184.111 378.54 185.942 378.571C191.555 378.601 196.68 377.99 201.226 377.043C203.758 376.524 206.107 375.882 208.243 375.21C217.121 372.399 222.399 368.672 222.338 367.603C222.307 366.411 222.521 364.914 222.368 363.234C221.819 356.879 221.514 351.319 221.27 345.728C230.88 346.584 236.432 345.637 236.432 345.637C244.365 328.559 231.521 284.626 226.365 280.746ZM224.107 329.658C223.527 329.811 222.887 329.964 222.216 330.117C221.758 330.208 221.27 330.331 220.751 330.422C220.751 330.178 220.721 329.964 220.721 329.72C220.599 326.573 220.446 323.579 220.233 320.738C220.05 318.355 219.836 316.063 219.561 313.894C222.887 322.632 225.205 329.353 224.107 329.658Z" fill="#9ED9F0"/>
<path d="M184.935 274.606C184.935 274.606 170.84 276.744 164.769 281.816C158.698 286.887 158.088 319.118 156.074 328.253C155.677 330.056 155.311 332.927 155.006 336.441C153.908 348.814 155.22 365.953 156.288 372.308C156.41 373.835 156.349 376.096 155.464 378.296C153.908 382.176 153.572 383.306 156.349 385.506C159.125 387.736 162.115 390.852 164.22 389.966C165.837 389.294 165.562 378.479 165.349 373.56C167.789 363.081 171.725 343.406 175.447 324.343C180.389 298.955 184.935 274.606 184.935 274.606Z" fill="#D9935C"/>
<path d="M184.935 274.606C184.935 274.606 182.311 288.629 178.894 306.501C177.796 312.183 176.637 318.232 175.447 324.343C170.596 333.875 166.447 340.321 165.135 339.129C162.511 336.655 157.905 336.349 155.006 336.441C155.311 332.927 155.677 330.025 156.074 328.253C156.227 327.52 156.379 326.664 156.532 325.687C158.24 314.23 159.186 286.49 164.769 281.846C167.698 279.402 172.518 277.63 176.728 276.469C178.864 275.858 180.847 275.43 182.311 275.125C183.928 274.758 184.935 274.606 184.935 274.606Z" fill="#9ED9F0"/>
<path d="M165.135 339.129C162.511 336.655 157.905 336.349 155.006 336.441C155.311 332.927 155.677 330.025 156.074 328.253C156.227 327.52 156.379 326.664 156.532 325.687L171.084 290.523C171.054 290.523 166.416 340.351 165.135 339.129Z" fill="#74ACBE"/>
<path d="M205.07 274.27C205.192 269.351 205.101 263.516 204.429 258.566L184.874 261.744C184.874 261.744 184.874 267.732 184.965 274.361H184.935C184.935 274.361 184.416 280.502 191.982 281.418C199.518 282.304 205.253 279.005 205.07 274.27Z" fill="#D9935C"/>
<path d="M188.687 534.442C191.158 532.914 189.694 521.61 189.694 521.61C189.694 521.61 178.162 512.445 176.637 519.502C175.081 526.56 165.776 529.737 160.467 530.623C156.806 531.234 155.677 533.281 155.342 534.472L188.687 534.442Z" fill="#233862"/>
<path d="M222.216 330.117C222.216 330.117 218.555 335.066 217.792 335.066C217.029 335.066 207.816 331.492 210.44 323.457C213.094 315.452 219.531 313.833 219.531 313.833C219.806 316.002 220.019 318.294 220.202 320.677C220.416 323.518 220.568 326.512 220.69 329.658C220.69 329.872 220.721 330.117 220.721 330.361C221.27 330.3 221.758 330.208 222.216 330.117Z" fill="#74ACBE"/>
<path d="M223.985 534.442C226.456 532.914 224.992 521.61 224.992 521.61C224.992 521.61 213.46 512.445 211.934 519.502C210.378 526.56 201.074 529.737 195.765 530.623C192.104 531.234 190.975 533.281 190.64 534.472L223.985 534.442Z" fill="#233862"/>
<path d="M206.931 252.884C206.931 252.884 219.989 232.262 194.911 230.918C194.911 230.918 185.514 232.017 183.379 229.909C183.379 229.909 176.087 240.999 182.891 252.914C189.694 264.799 206.931 252.884 206.931 252.884Z" fill="#B64C41"/>
<path d="M185.453 263.638C187.345 265.135 192.928 266.632 194.545 266.784C194.545 266.784 202.813 264.951 204.307 264.035C206.626 262.63 206.473 259.758 206.596 255.786C206.748 251.081 207.206 247.385 206.687 244.666C206.077 241.427 204.002 239.564 198.267 239.075C187.711 238.158 183.318 240.816 183.135 244.36C183.074 245.307 183.043 246.224 183.013 247.079C182.586 258.169 183.44 262.08 185.453 263.638Z" fill="#D9935C"/>
<path d="M182.891 250.715C182.982 257.13 184.721 260.919 185.972 261.377C187.406 261.927 189.114 262.385 190.853 262.691C191.433 262.752 192.013 262.752 192.013 262.416C191.982 261.408 190.64 260.155 191.647 259.269C192.684 258.322 198.328 258.016 198.785 260.063C198.999 261.071 197.199 262.813 198.45 262.874C198.816 262.813 199.213 262.721 199.548 262.63C201.592 262.08 203.209 261.133 203.88 260.705C206.199 259.3 206.046 257.13 206.565 253.189C206.901 250.654 206.901 252.028 206.565 255.817C206.229 259.788 206.901 262.324 204.277 264.065C202.812 265.043 194.392 268.831 194.392 268.831C194.514 266.815 187.345 265.165 185.423 263.668C183.684 262.263 182.799 259.055 182.891 250.715Z" fill="#B64C41"/>
<path d="M222.368 367.542C222.399 368.611 217.121 372.338 208.273 375.149C207.572 375.363 206.809 375.607 206.046 375.821C206.046 375.821 206.016 375.821 206.016 375.852C205.192 385.567 202.935 399.284 200.921 412.543C200.402 415.965 199.884 419.387 199.426 422.656C198.206 431.363 197.26 439.306 197.169 445.019V445.08C197.138 447.708 199.335 454.246 199.487 455.743C199.579 456.659 199.67 457.637 199.731 458.675C199.975 462.769 199.884 467.596 199.548 472.759C198.114 495.276 192.165 524.116 190.03 525.338C185.82 527.782 178.131 525.338 174.257 524.757C172.64 524.513 171.359 523.138 171.42 521.519C173.311 484.124 167.85 432.066 163.762 400.079C163.671 399.254 163.549 398.429 163.457 397.635C162.969 393.846 162.633 390.333 162.45 387.156C162.267 384.375 162.176 381.84 162.145 379.64C162.145 378.968 162.115 378.296 162.115 377.685C162.115 375.668 163.701 362.562 163.762 302.468C163.762 301.093 164.891 299.932 166.294 299.932H202.996C206.535 299.932 209.402 302.835 209.341 306.379C209.28 310.961 209.463 317.377 210.44 323.457C211.782 331.797 214.68 339.588 220.69 341.482C220.721 341.543 220.873 341.91 221.148 342.521C221.209 344.018 221.27 345.576 221.331 347.134C221.331 347.439 221.361 347.775 221.361 348.081C221.361 348.264 221.392 348.447 221.392 348.631C221.392 348.936 221.422 349.272 221.453 349.578C221.483 350.097 221.514 350.647 221.545 351.166C221.575 351.594 221.606 352.022 221.606 352.419C221.636 353.244 221.697 354.069 221.758 354.894C221.758 355.169 221.789 355.413 221.819 355.688C221.88 356.757 221.972 357.857 222.033 358.957C222.063 359.293 222.094 359.629 222.124 359.965C222.124 360.118 222.155 360.301 222.155 360.454C222.185 360.882 222.216 361.309 222.246 361.737C222.277 362.195 222.338 362.654 222.368 363.112C222.551 364.853 222.338 366.381 222.368 367.542Z" fill="#2B478B"/>
<path d="M199.579 472.759C198.145 495.276 192.196 524.116 190.06 525.338C185.85 527.782 178.162 525.338 174.287 524.757C172.671 524.513 171.389 523.138 171.45 521.519C173.342 484.124 167.881 432.066 163.793 400.079C163.701 399.254 163.579 398.429 163.488 397.635C162.999 393.846 162.664 390.333 162.481 387.156C164.433 374.477 175.386 373.774 185.362 400.048C189.602 410.16 199.914 467.596 199.579 472.759Z" fill="#233862"/>
<path d="M222.765 443.95C223.07 446.547 226.121 452.749 226.487 454.215C231.521 474.47 228.744 522.527 226.243 524.452C222.399 527.415 214.467 526.01 210.531 525.949C208.884 525.918 207.45 524.727 207.297 523.108C204.216 484.827 191.372 432.249 183.135 401.331C178.986 385.75 178.406 374.294 178.406 374.294C178.406 374.294 216.938 350.647 221.087 363.57C224.778 374.996 220.446 423.969 222.765 443.95Z" fill="#2B478B"/>
<path d="M208.67 227.557C208.67 227.557 207.602 226.121 205.711 224.502C205.406 224.257 205.101 223.983 204.735 223.708C201.257 221.05 195.674 218.453 188.962 221.263C187.131 222.027 185.636 223.066 184.386 224.257C184.081 224.532 183.806 224.838 183.531 225.143C177.704 231.62 178.192 241.763 178.192 241.763L211.812 241.397C211.934 232.017 208.67 227.557 208.67 227.557Z" fill="#FFA412"/>
<path d="M202.385 241.519C202.385 241.397 201.379 228.687 205.711 224.532C205.406 224.288 205.497 224.319 205.131 224.074C200.585 228.81 200.494 241.03 200.524 241.58L202.385 241.519Z" fill="#E27F2B"/>
<path d="M189.786 241.642C189.481 233.394 184.935 225.206 184.386 224.289C184.081 224.564 184.02 224.625 183.776 224.931C184.569 226.306 187.528 234.28 187.803 241.673L178.223 241.764C178.223 241.764 187.162 244.086 193.904 243.995C200.646 243.903 211.812 241.398 211.812 241.398L189.786 241.642Z" fill="#E27F2B"/>
<path d="M210.562 275.125C210.562 275.125 199.213 288.384 198.541 299.932H204.307C204.307 299.932 205.772 287.376 214.314 275.919L210.562 275.125Z" fill="#2B478B"/>
<path d="M182.311 275.094C174.196 287.406 173.22 299.932 173.22 299.932H167.454C167.942 290.859 173.586 281.174 176.728 276.439C178.864 275.828 180.847 275.4 182.311 275.094Z" fill="#2B478B"/>
<path d="M240.948 346.675C240.734 342.276 240.124 337.052 238.995 330.819C238.995 333.813 238.812 336.655 238.354 339.221C239.788 350.616 239.239 359.324 236.707 364.273C235.121 367.328 232.955 369.68 230.331 371.238C231.673 369.925 232.863 368.367 233.87 366.564C235.822 363.051 237.622 356.543 236.951 344.537C236.829 344.873 236.676 345.209 236.524 345.514C236.524 345.514 236.036 345.606 235.09 345.698C235.487 354.466 234.541 361.218 232.314 365.22C230.605 368.275 228.317 370.536 225.572 372.002C226.426 371.147 227.249 370.169 227.982 369.1C230.3 365.709 232.71 359.018 232.802 345.881C232.222 345.912 231.582 345.942 230.88 345.973C230.758 356.024 229.294 363.54 226.487 367.633C226.365 367.817 226.212 368 226.09 368.183C228.195 364.548 230.239 357.949 230.331 345.973C229.721 345.973 229.08 346.003 228.409 345.973C228.317 356.024 226.822 363.509 224.016 367.603C222.277 370.169 220.08 372.033 217.548 373.194C216.785 373.072 215.992 372.888 215.199 372.674C215.077 372.644 214.985 372.613 214.894 372.583H214.863C214.772 372.552 214.65 372.522 214.558 372.491C213.582 372.216 212.667 371.88 211.751 371.513C200.646 367.084 194.27 357.154 193.66 348.997C193.233 343.193 193.691 334.547 194.85 325.137C197.168 306.623 202.172 285.146 208.304 276.591C208.395 276.439 208.518 276.316 208.609 276.164C208.731 276.011 208.853 275.828 209.006 275.675C209.219 275.4 209.463 275.155 209.677 274.911C210.165 274.422 210.623 274.025 211.111 273.75C211.233 273.811 211.385 273.933 211.538 274.056C211.934 274.361 212.423 274.819 212.941 275.522C212.941 275.522 212.941 275.522 212.941 275.553C213.582 275.675 214.253 275.858 214.924 276.011C215.229 276.103 215.565 276.164 215.87 276.286C215.9 276.286 215.9 276.286 215.931 276.286C215.992 276.316 216.084 276.316 216.145 276.347C216.541 276.469 216.938 276.561 217.334 276.683C217.548 276.744 217.792 276.836 218.006 276.897C218.28 276.989 218.555 277.08 218.799 277.172C219.073 277.264 219.378 277.355 219.653 277.477C219.958 277.6 220.263 277.691 220.568 277.813C220.568 277.813 220.568 277.783 220.538 277.783C216.938 272.1 214.375 270.787 212.728 270.878C212.453 270.878 212.209 270.909 211.965 270.97C211.66 270.878 211.385 270.848 211.141 270.848C210.592 270.848 210.012 270.939 209.463 271.153C207.755 271.306 205.955 272.406 204.094 274.392C203.972 274.514 203.85 274.667 203.728 274.819C202.69 275.98 201.653 277.416 200.616 279.035C200.616 279.035 200.616 279.066 200.585 279.066C190.762 294.647 181.579 329.231 181.03 345.423C180.603 358.224 190.457 369.68 200.402 374.385C201.379 374.843 202.355 375.241 203.301 375.577C203.85 375.76 204.368 375.943 204.918 376.096H204.948C207.023 376.677 209.006 376.951 210.928 376.951C211.355 376.951 211.751 376.951 212.148 376.921C212.575 376.951 212.972 376.951 213.399 376.951C215.199 376.951 216.938 376.707 218.585 376.188C218.86 376.188 219.104 376.157 219.348 376.127C219.561 376.096 219.775 376.096 219.989 376.065C220.416 376.004 220.843 375.943 221.239 375.882C222.429 375.882 223.619 375.791 224.748 375.607C228.317 375.027 231.49 373.469 234.083 371.055C235.731 369.528 237.134 367.664 238.263 365.464C239.941 362.256 241.436 356.574 240.948 346.675ZM182.952 345.545C183.44 331.217 191.25 300.788 199.914 284.351C199.609 285.085 199.304 285.818 198.999 286.612C190.823 303.965 183.958 331.522 183.501 345.453C183.318 351.289 185.24 356.818 188.352 361.584C184.599 356.33 182.799 350.433 182.952 345.545ZM203.545 372.216C191.219 366.411 185.087 354.405 185.392 345.514C185.667 337.632 188.138 324.893 191.769 312.306C188.962 325.931 187.375 339.74 187.772 348.234C188.26 358.987 195.887 367.939 204.399 372.583C204.124 372.491 203.85 372.369 203.545 372.216ZM189.663 348.142C189.114 335.86 192.989 311.083 198.724 293.333C199.365 291.348 200.036 289.453 200.707 287.651C200.951 287.101 201.226 286.582 201.47 286.062C197.046 298.191 193.721 315.483 192.287 330.025C191.555 337.541 191.311 344.323 191.677 349.272C192.348 358.132 197.87 365.556 204.643 370.261C195.216 365.037 189.999 355.719 189.663 348.142Z" fill="#FFA412"/>
<path d="M222.216 330.117C221.911 330.178 215.992 331.247 215.687 331.278C205.863 332.714 192.653 333.355 191.25 333.416C191.128 333.294 186.43 328.925 184.599 328.925C182.738 328.925 177.399 330.881 176.85 332.378C176.301 333.875 176.087 336.594 177.613 337.174C179.138 337.785 185.453 339.282 187.101 339.435C187.314 339.465 187.589 339.465 187.894 339.435C199.64 342.887 209.768 344.598 217.548 345.392C218.25 345.453 222.277 346.003 225.846 345.942C225.724 339.16 223.466 332.866 222.216 330.117Z" fill="#D9935C"/>
<path d="M436.901 189.857V187.26H431.257V170.182H426.589V187.26H414.752V170.182H410.085V187.26H397.21V170.182H392.542V187.26H380.705V170.182H376.038V187.26H369.844V189.857H376.038V198.167H369.844V200.764H376.038V209.074H369.844V211.67H376.038V219.98H369.844V222.577H376.038V230.887H369.844V233.484H376.038V241.794H369.844V244.391H376.038V251.112H369.844V253.709H376.038V262.019H369.844V264.615H376.038V272.925H369.844V275.522H376.038V283.74H369.844V286.337H376.038V294.647H369.844V297.244H376.038V305.554H369.844V308.151H376.038V316.094H369.844V318.691H376.038V327.001H369.844V329.597H376.038V337.907H369.844V340.504H376.038V348.814H369.844V351.411H376.038V359.721H369.844V362.318H376.038V370.627H369.844V373.224H376.038V379.946H369.844V382.542H376.038V390.852H369.844V393.449H376.038V401.759H369.844V404.356H376.038V412.666H369.844V415.262H376.038V423.572H369.844V426.169H376.038V434.479H369.844V437.076H376.038V444.5H369.844V447.097H376.038V455.407H369.844V458.003H376.038V466.313H369.844V468.91H376.038V477.22H369.844V479.817H376.038V488.127H369.844V490.723H376.038V499.033H369.844V501.63H376.038V508.351H369.844V510.948H376.038V519.258H369.844V521.855H376.038V530.165H369.844V532.762H436.962V530.165H431.318V521.855H436.962V519.258H431.318V510.948H436.962V508.351H431.318V501.63H436.962V499.033H431.318V490.723H436.962V488.127H431.318V479.817H436.962V477.22H431.318V468.91H436.962V466.313H431.318V458.003H436.962V455.407H431.318V447.097H436.962V444.5H431.318V437.076H436.962V434.479H431.318V426.169H436.962V423.572H431.318V415.262H436.962V412.666H431.318V404.356H436.962V401.759H431.318V393.449H436.962V390.852H431.318V382.542H436.962V379.946H431.318V373.224H436.962V370.627H431.318V362.318H436.962V359.721H431.318V351.411H436.962V348.814H431.318V340.504H436.962V337.907H431.318V329.597H436.962V327.001H431.318V318.691H436.962V316.094H431.318V308.151H436.962V305.554H431.318V297.244H436.962V294.647H431.318V286.337H436.962V283.74H431.318V275.43H436.962V272.834H431.318V264.524H436.962V261.927H431.318V253.617H436.962V251.051H431.318V244.33H436.962V241.733H431.318V233.423H436.962V230.826H431.318V222.516H436.962V219.919H431.318V211.64H436.962V209.043H431.318V200.733H436.962V198.136H431.318V189.827H436.901V189.857ZM410.054 189.857V198.167H397.18V189.857H410.054ZM397.18 518.922V510.612H410.054V518.922H397.18ZM410.054 521.519V529.829H397.18V521.519H410.054ZM397.18 508.015V501.294H410.054V508.015H397.18ZM397.18 498.728V490.418H410.054V498.728H397.18ZM397.18 487.821V479.511H410.054V487.821H397.18ZM397.18 476.945V468.635H410.054V476.945H397.18ZM397.18 466.038V457.728H410.054V466.038H397.18ZM397.18 455.162V446.852H410.054V455.162H397.18ZM397.18 444.255V436.831H410.054V444.255H397.18ZM397.18 434.265V425.955H410.054V434.265H397.18ZM397.18 423.358V415.049H410.054V423.358H397.18ZM397.18 412.482V404.172H410.054V412.482H397.18ZM397.18 401.576V393.266H410.054V401.576H397.18ZM397.18 390.699V382.39H410.054V390.699H397.18ZM397.18 379.793V373.072H410.054V379.793H397.18ZM397.18 370.505V362.195H410.054V370.505H397.18ZM397.18 359.599V351.289H410.054V359.599H397.18ZM397.18 348.692V340.382H410.054V348.692H397.18ZM397.18 337.816V329.506H410.054V337.816H397.18ZM397.18 326.909V318.599H410.054V326.909H397.18ZM397.18 316.033V308.09H410.054V316.033H397.18ZM397.18 305.523V297.213H410.054V305.523H397.18ZM397.18 294.617V286.307H410.054V294.617H397.18ZM397.18 283.74V275.43H410.054V283.74H397.18ZM397.18 272.834V264.524H410.054V272.834H397.18ZM397.18 261.957V253.648H410.054V261.957H397.18ZM397.18 251.051V244.33H410.054V251.051H397.18ZM397.18 241.733V233.423H410.054V241.733H397.18ZM397.18 230.857V222.547H410.054V230.857H397.18ZM397.18 219.95V211.64H410.054V219.95H397.18ZM397.18 209.074V200.764H410.054V209.074H397.18ZM380.644 189.857H392.481V198.167H380.644V189.857ZM380.644 200.764H392.481V209.074H380.644V200.764ZM380.644 211.64H392.481V219.95H380.644V211.64ZM380.644 222.547H392.481V230.857H380.644V222.547ZM380.644 233.423H392.481V241.733H380.644V233.423ZM380.644 244.33H392.481V251.051H380.644V244.33ZM380.644 253.648H392.481V261.957H380.644V253.648ZM380.644 264.524H392.481V272.834H380.644V264.524ZM380.644 275.43H392.481V283.74H380.644V275.43ZM380.644 286.307H392.481V294.617H380.644V286.307ZM380.644 297.213H392.481V305.523H380.644V297.213ZM380.644 308.09H392.481V316.033H380.644V308.09ZM380.644 318.599H392.481V326.909H380.644V318.599ZM380.644 329.506H392.481V337.816H380.644V329.506ZM380.644 340.412H392.481V348.722H380.644V340.412ZM380.644 351.289H392.481V359.599H380.644V351.289ZM380.644 362.195H392.481V370.505H380.644V362.195ZM380.644 373.072H392.481V379.793H380.644V373.072ZM380.644 382.39H392.481V390.699H380.644V382.39ZM380.644 393.266H392.481V401.576H380.644V393.266ZM380.644 404.172H392.481V412.482H380.644V404.172ZM380.644 415.049H392.481V423.358H380.644V415.049ZM380.644 425.955H392.481V434.265H380.644V425.955ZM380.644 436.862H392.481V444.286H380.644V436.862ZM380.644 446.852H392.481V455.162H380.644V446.852ZM380.644 457.728H392.481V466.038H380.644V457.728ZM380.644 468.635H392.481V476.945H380.644V468.635ZM380.644 479.511H392.481V487.821H380.644V479.511ZM380.644 490.418H392.481V498.728H380.644V490.418ZM380.644 501.294H392.481V508.015H380.644V501.294ZM380.644 510.612H392.481V518.922H380.644V510.612ZM380.644 521.519H392.481V529.829H380.644V521.519ZM426.589 529.829H414.752V521.519H426.589V529.829ZM426.589 518.922H414.752V510.612H426.589V518.922ZM426.589 508.015H414.752V501.294H426.589V508.015ZM426.589 498.728H414.752V490.418H426.589V498.728ZM426.589 487.821H414.752V479.511H426.589V487.821ZM426.589 476.945H414.752V468.635H426.589V476.945ZM426.589 466.038H414.752V457.728H426.589V466.038ZM426.589 455.162H414.752V446.852H426.589V455.162ZM426.589 444.255H414.752V436.831H426.589V444.255ZM426.589 434.265H414.752V425.955H426.589V434.265ZM426.589 423.358H414.752V415.049H426.589V423.358ZM426.589 412.482H414.752V404.172H426.589V412.482ZM426.589 401.576H414.752V393.266H426.589V401.576ZM426.589 390.699H414.752V382.39H426.589V390.699ZM426.589 379.793H414.752V373.072H426.589V379.793ZM426.589 370.505H414.752V362.195H426.589V370.505ZM426.589 359.599H414.752V351.289H426.589V359.599ZM426.589 348.692H414.752V340.382H426.589V348.692ZM426.589 337.816H414.752V329.506H426.589V337.816ZM426.589 326.909H414.752V318.599H426.589V326.909ZM426.589 316.033H414.752V308.09H426.589V316.033ZM426.589 305.523H414.752V297.213H426.589V305.523ZM426.589 294.617H414.752V286.307H426.589V294.617ZM426.589 283.74H414.752V275.43H426.589V283.74ZM426.589 272.834H414.752V264.524H426.589V272.834ZM426.589 261.957H414.752V253.648H426.589V261.957ZM426.589 251.051H414.752V244.33H426.589V251.051ZM426.589 241.733H414.752V233.423H426.589V241.733ZM426.589 230.857H414.752V222.547H426.589V230.857ZM426.589 219.95H414.752V211.64H426.589V219.95ZM426.589 209.074H414.752V200.764H426.589V209.074ZM426.589 198.167H414.752V189.857H426.589V198.167Z" fill="#D2E4FF"/>
<path d="M493.768 32H492.121V61.5123H493.768V32Z" fill="#D2E4FF"/>
<path d="M585.445 32H583.798V61.5123H585.445V32Z" fill="#D2E4FF"/>
<path d="M505.331 32H503.683V61.5123H505.331V32Z" fill="#D2E4FF"/>
<path d="M593.713 32H592.065V61.5123H593.713V32Z" fill="#D2E4FF"/>
<path d="M259.405 466.833C258.886 466.71 258.337 467.046 258.215 467.566L249.276 506.641C246.866 506.702 244.395 509.329 243.571 512.965L242.717 516.692C242.687 516.875 242.626 517.12 242.595 517.303L252.51 519.564C252.602 519.38 252.663 519.136 252.693 518.953L253.547 515.225C254.371 511.59 253.303 508.168 251.168 507.038L260.107 467.963C260.259 467.474 259.924 466.955 259.405 466.833Z" fill="#2B478B"/>
<path d="M233.443 517.242C233.443 517.242 254.036 511.895 260.625 516.234C267.215 520.572 257.269 525.185 257.269 525.185L233.443 517.242Z" fill="#E69D43"/>
<path d="M392.542 281.663C388.607 293.73 367.129 314.597 364.17 316.674C364.17 316.674 359.167 308.334 360.173 303.66C360.997 299.841 369.356 286.276 372.194 279.585C372.346 279.249 372.468 278.913 372.59 278.608C372.987 277.569 373.2 276.805 373.139 276.316C372.987 274.881 368.441 271.337 363.163 267.151C356.299 261.713 348.153 255.175 346.841 250.654C344.523 242.649 336.438 210.968 336.438 210.968C336.438 210.968 356.512 215.306 362.156 220.316C367.831 225.327 392.115 266.998 393.122 277.661C393.275 278.822 393.031 280.166 392.542 281.663Z" fill="#FFA412"/>
<path d="M392.542 281.663C388.607 293.73 367.129 314.597 364.17 316.674C364.17 316.674 359.167 308.334 360.173 303.66C361.028 299.657 370.241 284.84 372.621 278.608C376.19 277.997 384.549 277.233 392.542 281.663Z" fill="#D9935C"/>
<path d="M336.468 208.188V210.662C336.468 210.662 337.14 218.361 327.682 219.492C318.225 220.622 311.086 217.17 311.36 211.243C312.215 206.66 313.099 202.811 313.16 198.992C313.191 197.586 313.099 196.089 312.825 194.379L331.16 194.012L336.56 194.898L336.468 208.188Z" fill="#D9935C"/>
<path d="M336.53 194.867L336.469 208.188C334.516 209.104 332.319 209.654 329.848 209.654C321.428 209.654 315.967 203.452 313.13 198.961C313.16 197.556 313.069 196.059 312.794 194.348L331.13 193.981L336.53 194.867Z" fill="#CB7D45"/>
<path d="M320.299 534.472C320.299 534.472 319.414 527.537 317.34 523.413C315.265 519.289 302.177 521.916 302.177 521.916C302.177 521.916 299.554 524.177 299.005 534.686L320.299 534.472Z" fill="#233862"/>
<path d="M364.994 534.442C361.912 532.548 363.651 518.494 363.651 518.494C363.651 518.494 378.021 506.977 379.973 515.806C381.956 524.604 393.61 528.576 400.261 529.645C404.837 530.379 406.271 532.945 406.698 534.442H364.994Z" fill="#233862"/>
<path d="M335.248 430.691C335.828 433.929 336.194 436.557 336.316 438.451C337.658 464.541 358.221 524.146 361.912 525.552C367.617 527.69 376.587 523.138 381.285 521.641C383.237 521.03 384.549 519.044 384.122 517.058C373.932 470.132 370.18 402.553 368.807 362.562C368.105 342.398 364.658 328.498 364.658 328.498C364.658 328.498 314.442 315.055 314.137 332.011C313.893 347.011 330.763 405.914 335.248 430.691Z" fill="#2B478B"/>
<path d="M335.248 430.691L368.777 362.531C368.075 342.368 364.627 328.467 364.627 328.467C364.627 328.467 314.442 315.055 314.137 332.011C313.893 347.011 330.763 405.914 335.248 430.691Z" fill="#233862"/>
<path d="M346.414 332.072L319.872 524.696C319.872 524.696 308.218 527.507 299.157 525.246C299.157 525.246 291.378 422.808 292.049 398.032C292.689 373.255 286.466 331.767 293.483 327.184C300.469 322.601 346.414 332.072 346.414 332.072Z" fill="#2B478B"/>
<path d="M366.092 332.439C366.092 332.439 352.516 340.351 332.899 340.137C325.242 340.046 318.591 339.465 312.916 338.641C297.174 336.288 289.211 331.889 289.272 330.27C289.333 328.803 289.425 323.884 289.608 321.746C292.11 292.845 290.828 270.328 294.184 253.464C294.215 253.25 294.276 253.067 294.306 252.853C298.76 231.376 305.747 219.033 309.225 213.962C310.506 212.129 311.299 211.243 311.33 211.243C311.33 215.245 319.842 218.697 326.797 218.27C332.655 217.872 336.438 213.442 336.438 211.029C336.926 211.029 362.827 229.085 362.858 245.827C362.98 320.921 367.526 332.439 366.092 332.439Z" fill="#FFA412"/>
<path d="M312.947 338.366C312.947 338.457 312.916 338.518 312.916 338.61C297.174 336.258 289.211 331.858 289.272 330.239C289.333 328.773 289.425 323.854 289.608 321.715C292.11 292.814 290.828 270.298 294.184 253.434C302.452 264.493 319.475 293.486 312.947 338.366Z" fill="#E27F2B"/>
<path d="M356.117 302.438L354.012 309.495L351.907 316.491L260.504 288.965C260.382 288.965 260.26 288.965 260.138 288.934C260.016 288.903 259.894 288.842 259.772 288.751C258.613 287.926 258.399 284.932 259.284 281.571C259.345 281.388 259.375 281.205 259.436 281.021C260.504 277.386 262.457 274.728 263.952 274.697C264.074 274.697 264.196 274.697 264.318 274.758C264.44 274.789 264.562 274.85 264.653 274.911L356.117 302.438Z" fill="#E9F3FE"/>
<path d="M353.98 309.495L351.875 316.491L260.473 288.965C260.351 288.965 260.229 288.965 260.107 288.934C259.985 288.903 259.863 288.842 259.741 288.751C258.581 287.926 258.368 284.932 259.252 281.571C262.974 284.382 280.822 296.786 311.299 302.835C342.784 309.067 352.546 309.464 353.98 309.495Z" fill="#BED4F4"/>
<path d="M356.268 302.376C354.743 301.918 352.577 304.729 351.417 308.67C350.258 312.58 350.563 316.124 352.089 316.583C353.614 317.041 355.78 314.23 356.939 310.289C358.099 306.379 357.824 302.835 356.268 302.376Z" fill="#AFCDFB"/>
<path d="M265.293 272.284L254.524 270.542C254.402 270.481 254.28 270.451 254.158 270.42C254.036 270.39 253.914 270.39 253.792 270.42C252.327 270.634 250.741 273.536 250.161 277.294C250.131 277.477 250.1 277.691 250.07 277.875C249.856 279.524 249.887 281.052 250.1 282.274C250.344 283.588 250.802 284.535 251.442 284.901L251.473 284.932C251.595 284.993 251.717 285.023 251.839 285.054C251.961 285.085 252.083 285.085 252.205 285.054L346.414 300.36L347.573 293.15L348.763 285.879L265.293 272.284Z" fill="#E9F3FE"/>
<path d="M304.466 292.143C284.33 290.86 273.622 280.167 265.293 272.316L254.524 270.574C254.402 270.513 254.28 270.483 254.158 270.452C254.036 270.422 253.914 270.422 253.792 270.452C252.327 270.666 250.741 273.568 250.161 277.326C250.131 277.509 250.1 277.723 250.07 277.907C249.856 279.556 249.887 281.084 250.1 282.306C250.619 283.742 251.137 284.72 251.442 284.933L251.473 284.964C251.595 285.025 251.717 285.056 251.839 285.086C251.961 285.117 252.083 285.117 252.205 285.086L346.414 300.392L347.573 293.182C346.201 293.304 336.499 294.19 304.466 292.143Z" fill="#BED4F4"/>
<path d="M348.977 285.787C347.39 285.543 345.621 288.598 344.98 292.661C344.34 296.694 345.102 300.177 346.689 300.421C348.275 300.666 350.045 297.61 350.685 293.547C351.326 289.514 350.563 286.062 348.977 285.787Z" fill="#AFCDFB"/>
<path d="M315.448 313.558C293.605 310.075 279.144 300.91 273.225 296.48C271.212 294.953 270.174 294.005 270.174 294.005C258.978 270.42 279.235 229.115 282.927 222.088C286.923 214.542 311.33 211.212 311.33 211.212C311.33 211.212 307.425 222.699 305.899 237.639C304.374 252.609 288.144 281.755 288.815 284.199C288.967 284.81 290.95 286.123 293.788 287.743C302.269 292.57 318.652 300.36 319.659 302.193C321.001 304.668 315.448 313.558 315.448 313.558Z" fill="#D9935C"/>
<path d="M319.689 302.224C319.689 302.224 331.892 297.336 334.882 299.321C337.872 301.307 342.875 304.332 342.875 306.318C342.875 308.303 336.56 313.65 331.221 315.33C325.882 317.01 315.448 313.558 315.448 313.558L319.689 302.224Z" fill="#D9935C"/>
<path d="M305.93 237.639C304.405 252.609 288.174 281.755 288.845 284.199C288.998 284.81 290.981 286.123 293.818 287.743C293.635 287.743 293.452 287.773 293.269 287.743C280.486 287.193 274.72 294.25 273.256 296.45C271.242 294.922 270.205 293.975 270.205 293.975C259.008 270.39 279.266 229.085 282.957 222.058C286.954 214.512 311.36 211.182 311.36 211.182C311.36 211.182 307.425 222.699 305.93 237.639Z" fill="#FFA412"/>
<path d="M337.597 201.344C337.597 201.344 314.106 206.08 311.391 191.415C308.676 176.72 303.794 167.433 318.682 163.797C333.57 160.131 337.536 165.202 339.611 169.877C341.716 174.551 343.638 199.725 337.597 201.344Z" fill="#D9935C"/>
<path d="M311.879 195.631C311.879 195.631 307.333 185.916 303.55 181.608C299.767 177.301 301.842 155.762 318.164 156.434C334.516 157.137 340.374 168.838 340.526 171.068C340.709 173.298 327.438 171.588 323.838 174.52C320.238 177.453 323.655 182.28 319.536 183.991C315.418 185.702 312.123 185.702 312.825 189.521C313.526 193.34 311.879 195.631 311.879 195.631Z" fill="#233862"/>
<path d="M316.913 146.475C312.245 147.666 308.737 149.53 306.113 151.791C305.838 152.004 305.594 152.249 305.35 152.463C295.649 161.72 299.523 176.445 299.523 176.445C299.523 176.445 300.805 180.172 301.689 181.608C302.574 183.044 315.448 181.394 316.12 178.614C316.791 175.834 319.323 172.932 319.323 172.932C319.323 172.932 332.899 171.985 333.814 171.924C336.865 171.71 345.621 168.655 345.621 168.655C345.56 167.83 340.618 140.517 316.913 146.475Z" fill="#FFA412"/>
<path d="M353.675 165.813C352.058 165.416 349.282 164.958 344.706 164.805C344.706 164.805 340.862 167.983 333.235 170.427C329.635 165.905 319.414 154.998 306.113 151.791C306.082 151.791 306.021 151.76 305.991 151.76C305.716 152.127 305.533 152.249 305.35 152.463C305.289 152.524 305.228 152.615 305.167 152.707C315.998 154.601 326.309 166.791 329.848 171.343C326.828 172.076 323.32 172.687 319.384 172.932C319.384 172.932 343.089 173.39 353.95 167.647C354.743 167.249 354.59 166.027 353.675 165.813Z" fill="#E27F2B"/>
<path d="M377.838 273.658C377.41 276.164 376.068 278.791 372.224 279.585C372.377 279.249 372.499 278.913 372.621 278.608C373.017 277.569 373.231 276.805 373.17 276.316C373.017 274.881 368.472 271.337 363.194 267.151C362.767 264.768 361.699 257.741 363.194 252.151C365.024 245.307 378.326 270.817 377.838 273.658Z" fill="#E27F2B"/>
<path d="M291.256 286.093C291.256 286.093 274.934 284.749 269.625 294.25C269.625 294.25 270.083 297.458 273.225 296.48C273.225 296.48 287.015 287.04 293.788 287.773C293.818 287.773 292.781 286.123 291.256 286.093Z" fill="#E27F2B"/>
<path d="M372.224 279.585C372.224 279.585 380.675 279.952 391.353 284.596C391.353 284.596 393.732 282.274 392.786 280.93C391.81 279.616 376.831 274.819 372.224 279.585Z" fill="#E27F2B"/>
<path d="M489.711 224.105C497.033 186.466 503.775 150.416 503.775 150.416C503.775 150.416 482.907 153.593 473.907 161.078C464.908 168.594 464.023 216.345 461.003 229.848C460.423 232.506 459.874 236.783 459.416 242.008C457.708 261.438 459.843 290.523 461.43 298.68C461.338 299.474 460.667 303.323 457.128 310.686C457.128 310.686 455.298 316.369 467.287 324.862C474.945 330.269 481.748 265.012 489.711 224.105Z" fill="#D9935C"/>
<path d="M503.775 150.416C503.775 150.416 499.9 171.19 494.836 197.678C493.219 206.08 491.511 215.062 489.741 224.135C482.541 238.25 476.379 247.843 474.487 246.01C470.613 242.344 463.779 241.885 459.447 242.008C459.904 236.783 460.423 232.506 461.033 229.848C461.277 228.779 461.491 227.496 461.704 226.029C464.206 209.043 465.64 167.983 473.938 161.047C482.877 153.562 503.775 150.416 503.775 150.416Z" fill="#739AF0"/>
<path d="M494.806 197.648C493.189 206.049 491.48 215.031 489.711 224.105C482.511 238.219 476.348 247.812 474.457 245.979C470.582 242.313 463.748 241.855 459.416 241.977C459.874 236.753 460.392 232.476 461.003 229.818C461.247 228.748 461.46 227.465 461.674 225.999L483.212 173.909L494.806 197.648Z" fill="#4A75CB"/>
<path d="M533.581 149.866C533.734 142.595 533.612 133.918 532.636 126.586L503.653 131.321C503.653 131.321 503.653 140.181 503.775 149.988C503.744 149.988 503.744 149.988 503.744 149.988C503.744 149.988 502.951 159.092 514.178 160.436C525.405 161.811 533.886 156.923 533.581 149.866Z" fill="#D9935C"/>
<path d="M503.592 133.124C503.592 133.124 510.426 147.116 518.236 147.116C526.046 147.116 533.398 133.949 533.398 133.949L503.592 133.124Z" fill="#CB7D45"/>
<path d="M522.903 534.503C522.903 534.503 523.971 526.285 526.412 521.397C528.853 516.508 544.381 519.625 544.381 519.625C544.381 519.625 547.493 522.283 548.164 534.747L522.903 534.503Z" fill="#233862"/>
<path d="M469.972 534.381C473.633 532.151 471.558 515.5 471.558 515.5C471.558 515.5 454.535 501.875 452.216 512.292C449.867 522.741 436.047 527.415 428.176 528.698C422.745 529.584 421.067 532.578 420.549 534.381H469.972Z" fill="#233862"/>
<path d="M536.358 118.215C536.358 118.215 555.7 87.6639 518.571 85.6476C518.571 85.6476 504.629 87.2973 501.487 84.12C501.487 84.12 490.687 100.556 500.785 118.184C510.853 135.873 536.358 118.215 536.358 118.215Z" fill="#233862"/>
<path d="M504.538 134.163C507.344 136.393 515.612 138.592 517.992 138.837C517.992 138.837 530.225 136.118 532.453 134.774C535.9 132.696 535.686 128.45 535.839 122.553C536.052 115.588 536.754 110.119 535.961 106.086C535.046 101.29 531.995 98.5401 523.483 97.8069C507.833 96.4626 501.334 100.373 501.06 105.628C500.999 107.033 500.938 108.378 500.877 109.661C500.267 126.036 501.578 131.841 504.538 134.163Z" fill="#D9935C"/>
<path d="M505.209 410.68C504.507 414.499 504.08 417.645 503.958 419.876C502.372 450.763 477.996 521.397 473.633 523.046C466.891 525.582 456.243 520.175 450.691 518.403C448.372 517.669 446.847 515.348 447.335 512.965C459.416 457.362 463.84 377.318 465.457 329.933C466.28 306.073 470.369 289.576 470.369 289.576C470.369 289.576 529.829 273.689 530.195 293.792C530.531 311.572 510.517 381.351 505.209 410.68Z" fill="#2B478B"/>
<path d="M505.209 410.68L465.487 329.933C466.311 306.073 470.399 289.576 470.399 289.576C470.399 289.576 529.859 273.689 530.225 293.792C530.53 311.572 510.517 381.351 505.209 410.68Z" fill="#233862"/>
<path d="M491.968 293.853L523.422 522.038C523.422 522.038 537.242 525.368 547.981 522.71C547.981 522.71 557.195 401.362 556.432 372.002C555.669 342.673 563.052 293.486 554.754 288.079C546.425 282.671 491.968 293.853 491.968 293.853Z" fill="#2B478B"/>
<path d="M559.239 288.079C559.33 290.737 557.256 292.936 554.601 292.967L505.056 293.731L468.66 294.28C466.952 294.311 472.352 280.655 472.443 191.629C472.474 171.771 503.195 150.385 503.744 150.385C503.744 153.257 508.26 158.542 515.185 158.97C523.422 159.52 533.52 155.396 533.52 150.66C533.52 150.599 534.466 151.638 536.022 153.899C540.141 159.887 548.408 174.52 553.686 199.969C557.866 220.072 556.249 246.926 559.269 281.602C559.483 284.107 559.178 286.337 559.239 288.079Z" fill="#FFA412"/>
<path d="M557.408 293.242C557.408 293.242 550.818 296.205 538.493 298.741C529.341 300.635 517.015 302.346 501.853 302.438C477.782 302.59 468.66 294.28 468.66 294.28C466.952 294.311 472.352 280.655 472.443 191.629C472.474 171.771 503.195 150.385 503.744 150.385C503.744 150.385 502.951 176.842 510.944 184.602C510.944 184.602 522.141 175.926 536.693 151.271C540.812 157.259 548.378 174.49 553.686 199.939C554.754 205.102 555.456 210.754 555.944 216.834C557.347 234.4 557.042 255.817 559.269 281.571C559.483 284.076 559.178 286.307 559.239 288.048C559.33 290.736 560.032 293.211 557.408 293.242Z" fill="#739AF0"/>
<path d="M557.408 293.242C557.408 293.242 550.818 296.205 538.493 298.741C534.619 292.814 529.737 282.152 529.066 265.318C527.907 236.845 554.937 200.183 554.937 200.183L555.974 216.864C557.378 234.431 557.073 255.847 559.3 281.602C559.513 284.107 559.208 286.337 559.269 288.079C559.33 290.737 560.032 293.211 557.408 293.242Z" fill="#4A75CB"/>
<path d="M534 196.867L487.976 223.477L524.433 286.71L570.457 260.1L534 196.867Z" fill="#2B478B"/>
<path d="M562.686 159.978C557.042 155.701 543.802 152.676 537.303 151.393C535.015 150.935 533.551 150.691 533.551 150.691C534.222 153.837 535.747 158.756 537.761 164.652C546.12 189.429 562.717 231.529 559.391 232.415C556.676 233.148 553.198 233.789 549.354 234.339C534.802 236.478 515.215 237.425 513.171 237.517C513.019 237.364 506.033 230.857 503.317 230.857C500.572 230.857 492.639 233.759 491.846 235.959C491.053 238.189 490.717 242.191 492.975 243.077C495.233 243.963 504.599 246.193 507.039 246.407C507.375 246.438 507.771 246.438 508.199 246.407C525.619 251.54 540.598 254.045 552.161 255.236C568.269 256.886 577.696 255.969 577.696 255.969C589.35 230.826 570.313 165.752 562.686 159.978Z" fill="#D9935C"/>
<path d="M577.666 256C577.666 256 568.239 256.917 552.13 255.267C553.015 250.867 553.839 242.313 549.323 234.37C553.167 233.82 556.645 233.178 559.361 232.445C562.717 231.559 546.12 189.429 537.73 164.683C537.059 156.679 536.693 151.332 536.693 151.332L537.273 151.424C543.801 152.707 557.042 155.732 562.656 160.009C570.313 165.752 589.35 230.826 577.666 256Z" fill="#739AF0"/>
<path d="M510.975 184.633C510.975 184.633 533.398 174.734 533.734 173.971C534.069 173.207 532.636 167.188 531.08 165.416C531.08 165.416 541.849 166.424 542.52 165.08C543.191 163.736 543.68 152.768 543.68 152.768C543.68 152.768 539.195 148.124 533.642 147.666C533.642 147.666 528.761 159.795 526.961 163.4C522.171 172.962 510.975 184.633 510.975 184.633Z" fill="#4A75CB"/>
<path d="M505.636 165.08C505.636 165.08 507.07 176.628 510.975 184.633C510.975 184.633 499.26 176.476 498.253 173.787C497.246 171.129 501.09 165.966 501.09 165.966C501.09 165.966 494.104 165.813 493.921 163.461C493.768 161.139 496.087 151.943 496.087 151.943C496.087 151.943 502.097 147.544 503.775 147.727L505.636 165.08Z" fill="#4A75CB"/>
<path d="M543.588 101.229L493.799 101.748C493.799 101.748 493.067 86.7169 501.7 77.1239C502.097 76.6656 502.524 76.2379 502.951 75.8407C504.812 74.0688 507.07 72.5412 509.755 71.4108C519.7 67.2559 527.968 71.1053 533.124 75.0159C533.642 75.413 534.1 75.7796 534.558 76.1768C537.364 78.5598 538.92 80.6983 538.92 80.6983C538.92 80.6983 543.741 87.2974 543.588 101.229Z" fill="#FFA412"/>
<path d="M529.615 101.381C529.493 99.365 528.608 82.1037 534.649 76.2684C534.191 75.8713 534.344 75.9629 533.825 75.5658C527.388 82.287 526.87 99.2428 526.9 101.381L510.975 101.565C510.517 89.3443 503.775 77.185 502.951 75.8407C502.524 76.2684 502.433 76.3295 502.036 76.7878C503.195 78.8347 507.588 90.6274 508.016 101.595L493.799 101.748C493.799 101.748 507.07 105.17 517.046 105.047C527.022 104.925 543.588 101.198 543.588 101.198L529.615 101.381Z" fill="#E27F2B"/>
<defs>
<linearGradient id="paint0_linear_6_248" x1="560.5" y1="0" x2="560.5" y2="536" gradientUnits="userSpaceOnUse">
<stop stop-color="#00CE62"/>
<stop offset="1" stop-color="#07DBDB"/>
<stop offset="1" stop-color="#07DBDB"/>
</linearGradient>
</defs>
</svg>
