<svg height="512" viewBox="0 0 32 32" width="512" xmlns="http://www.w3.org/2000/svg" xmlns:xlink="http://www.w3.org/1999/xlink"><linearGradient id="linear-gradient" gradientUnits="userSpaceOnUse" x1="2.034" x2="29.632" y1="16.235" y2="16.235"><stop offset="0" stop-color="#0fdcdd"/><stop offset="1" stop-color="#46a1e8"/></linearGradient><g id="Ikon"><path d="m29.0459 3.02295a1.989 1.989 0 0 0 -2.0469-.48295l-22.6831 7.561a1.99985 1.99985 0 0 0 .05762 3.813l10.08548 3.02594a.99577.99577 0 0 1 .66993.66992l3.02539 10.085a1.99184 1.99184 0 0 0 1.88476 1.4253l.03125.00049a1.99254 1.99254 0 0 0 1.89649-1.36768l7.5615-22.68315a1.9891 1.9891 0 0 0 -.48242-2.04687zm-8.97559 24.09766-3.02539-10.08545a2.96356 2.96356 0 0 0 -.1828-.41455l5.87909-5.8794a.99989.99989 0 1 0 -1.41406-1.41406l-5.879 5.87939a2.96109 2.96109 0 0 0 -.41449-.18261l-10.08542-3.02539 22.6836-7.56154zm-16.3291-3.3794a.99989.99989 0 0 1 -1.41406-1.41406l5-5a.99989.99989 0 0 1 1.41406 1.41406zm11-.41406a.99962.99962 0 0 1 0 1.41406l-5 5a.99989.99989 0 1 1 -1.41406-1.41406l5-5a.99962.99962 0 0 1 1.41406 0zm-5.0293.375-4.96582 5.03418a.99992.99992 0 1 1 -1.42382-1.40433l4.96582-5.03418a.99992.99992 0 0 1 1.42382 1.4043z" fill="url(#linear-gradient)"/></g></svg>