<svg width="183" height="144" viewBox="0 0 183 144" fill="none" xmlns="http://www.w3.org/2000/svg">
<g clip-path="url(#clip0_6_420)">
<path d="M183 0H7.79865V115.409H183V0Z" fill="url(#paint0_linear_6_420)"/>
<path d="M181.029 13.6353H9.33167V111.919H181.029V13.6353Z" fill="white"/>
<path d="M181.029 2.39981H9.33167V13.6353H181.029V2.39981Z" fill="#15C56E"/>
<path d="M179.058 20.7257H11.7407V106.465H179.058V20.7257Z" fill="url(#paint1_linear_6_420)"/>
<path opacity="0.5" d="M33.9694 22.2529H13.8212V38.288H33.9694V22.2529Z" fill="#15C56E"/>
<path d="M54.3365 22.2529H34.1884V38.288H54.3365V22.2529Z" fill="white"/>
<path opacity="0.2" d="M74.7037 22.2529H54.5555V38.288H74.7037V22.2529Z" fill="#15C56E"/>
<path d="M95.0708 22.2529H74.9227V38.288H95.0708V22.2529Z" fill="white"/>
<path d="M115.438 22.2529H95.2898V38.288H115.438V22.2529Z" fill="white"/>
<path opacity="0.5" d="M135.805 22.2529H115.657V38.288H135.805V22.2529Z" fill="#15C56E"/>
<path d="M156.172 22.2529H136.024V38.288H156.172V22.2529Z" fill="white"/>
<path opacity="0.2" d="M176.539 22.2529H156.391V38.288H176.539V22.2529Z" fill="#15C56E"/>
<path opacity="0.2" d="M33.9694 38.6153H13.8212V54.6504H33.9694V38.6153Z" fill="#15C56E"/>
<path opacity="0.2" d="M54.3365 38.6153H34.1884V54.6504H54.3365V38.6153Z" fill="#15C56E"/>
<path d="M74.7037 38.6153H54.5555V54.6504H74.7037V38.6153Z" fill="white"/>
<path opacity="0.5" d="M95.0708 38.6153H74.9227V54.6504H95.0708V38.6153Z" fill="#15C56E"/>
<path d="M115.438 38.6153H95.2898V54.6504H115.438V38.6153Z" fill="white"/>
<path opacity="0.2" d="M135.805 38.6153H115.657V54.6504H135.805V38.6153Z" fill="#15C56E"/>
<path opacity="0.5" d="M156.172 38.6153H136.024V54.6504H156.172V38.6153Z" fill="#15C56E"/>
<path d="M176.539 38.6153H156.391V54.6504H176.539V38.6153Z" fill="white"/>
<path d="M33.9694 54.7595H13.8212V70.7946H33.9694V54.7595Z" fill="white"/>
<path d="M54.3365 54.7595H34.1884V70.7946H54.3365V54.7595Z" fill="white"/>
<path opacity="0.2" d="M74.7037 54.7595H54.5555V70.7946H74.7037V54.7595Z" fill="#15C56E"/>
<path d="M95.0708 54.7595H74.9227V70.7946H95.0708V54.7595Z" fill="white"/>
<path opacity="0.2" d="M115.438 54.7595H95.2898V70.7946H115.438V54.7595Z" fill="#15C56E"/>
<path d="M135.805 54.7595H115.657V70.7946H135.805V54.7595Z" fill="white"/>
<path d="M156.172 54.7595H136.024V70.7946H156.172V54.7595Z" fill="white"/>
<path opacity="0.2" d="M176.539 54.7595H156.391V70.7946H176.539V54.7595Z" fill="#15C56E"/>
<path d="M33.9694 70.9037H13.8212V86.9389H33.9694V70.9037Z" fill="white"/>
<path opacity="0.5" d="M54.3365 70.9037H34.1884V86.9389H54.3365V70.9037Z" fill="#15C56E"/>
<path opacity="0.5" d="M74.7037 70.9037H54.5555V86.9389H74.7037V70.9037Z" fill="#15C56E"/>
<path d="M95.0708 70.9037H74.9227V86.9389H95.0708V70.9037Z" fill="white"/>
<path d="M115.438 70.9037H95.2898V86.9389H115.438V70.9037Z" fill="white"/>
<path opacity="0.5" d="M135.805 70.9037H115.657V86.9389H135.805V70.9037Z" fill="#15C56E"/>
<path d="M156.172 70.9037H136.024V86.9389H156.172V70.9037Z" fill="white"/>
<path opacity="0.5" d="M176.539 70.9037H156.391V86.9389H176.539V70.9037Z" fill="#15C56E"/>
<path opacity="0.5" d="M33.9694 87.2661H13.8212V103.301H33.9694V87.2661Z" fill="#15C56E"/>
<path opacity="0.2" d="M54.3365 87.2661H34.1884V103.301H54.3365V87.2661Z" fill="#15C56E"/>
<path d="M74.7037 87.2661H54.5555V103.301H74.7037V87.2661Z" fill="white"/>
<path opacity="0.5" d="M95.0708 87.2661H74.9227V103.301H95.0708V87.2661Z" fill="#15C56E"/>
<path opacity="0.2" d="M115.438 87.2661H95.2898V103.301H115.438V87.2661Z" fill="#15C56E"/>
<path d="M135.805 87.2661H115.657V103.301H135.805V87.2661Z" fill="white"/>
<path opacity="0.2" d="M156.172 87.2661H136.024V103.301H156.172V87.2661Z" fill="#15C56E"/>
<path d="M176.539 87.2661H156.391V103.301H176.539V87.2661Z" fill="white"/>
<path d="M21.5958 56.2867H15.4637V62.3953H21.5958V56.2867Z" fill="#69F0AE"/>
<path d="M82.4782 23.9982H76.3462V30.1068H82.4782V23.9982Z" fill="#69F0AE"/>
<path d="M81.8212 56.2867H75.6892V62.3953H81.8212V56.2867Z" fill="#69F0AE"/>
<path d="M102.626 71.7764H96.4943V77.885H102.626V71.7764Z" fill="#69F0AE"/>
<path d="M143.142 56.2867H137.01V62.3953H143.142V56.2867Z" fill="#69F0AE"/>
<path d="M37.5697 144C58.3189 144 75.1395 127.244 75.1395 106.574C75.1395 85.9038 58.3189 69.1475 37.5697 69.1475C16.8205 69.1475 0 85.9038 0 106.574C0 127.244 16.8205 144 37.5697 144Z" fill="url(#paint2_linear_6_420)"/>
<path d="M37.5697 142.99C57.7589 142.99 74.1255 126.686 74.1255 106.574C74.1255 86.4617 57.7589 70.1576 37.5697 70.1576C17.3806 70.1576 1.01398 86.4617 1.01398 106.574C1.01398 126.686 17.3806 142.99 37.5697 142.99Z" fill="#15C56E"/>
<path d="M37.5697 136.161C53.9731 136.161 67.2707 122.915 67.2707 106.574C67.2707 90.233 53.9731 76.9862 37.5697 76.9862C21.1663 76.9862 7.86871 90.233 7.86871 106.574C7.86871 122.915 21.1663 136.161 37.5697 136.161Z" fill="white"/>
<path d="M37.5698 108.343C38.5507 108.343 39.3459 107.551 39.3459 106.574C39.3459 105.597 38.5507 104.804 37.5698 104.804C36.5889 104.804 35.7937 105.597 35.7937 106.574C35.7937 107.551 36.5889 108.343 37.5698 108.343Z" fill="url(#paint3_linear_6_420)"/>
<path d="M38.2399 106.792L37.1449 106.425L47 83.4482L48.095 83.9609L38.2399 106.792Z" fill="url(#paint4_linear_6_420)"/>
<path d="M47.117 83.6594L37.4708 106.419L38.1729 106.714L47.8191 83.9547L47.117 83.6594Z" fill="#2196F3"/>
<path d="M43.7149 118.791L37.3639 107.01L38.2399 106.574L44.81 118.136L43.7149 118.791Z" fill="url(#paint5_linear_6_420)"/>
<path d="M38.155 106.653L37.4854 107.015L43.8315 118.649L44.5011 118.286L38.155 106.653Z" fill="#2196F3"/>
<path d="M65.2406 108.092C65.6615 108.092 66.0027 107.752 66.0027 107.333C66.0027 106.914 65.6615 106.574 65.2406 106.574C64.8197 106.574 64.4785 106.914 64.4785 107.333C64.4785 107.752 64.8197 108.092 65.2406 108.092Z" fill="#15C56E"/>
<path d="M14.5922 93.4351C14.8656 92.9635 14.7034 92.3604 14.2299 92.0881C13.7565 91.8158 13.151 91.9774 12.8777 92.449C12.6043 92.9207 12.7666 93.5238 13.24 93.7961C13.7135 94.0684 14.3189 93.9068 14.5922 93.4351Z" fill="url(#paint6_linear_6_420)"/>
<path d="M14.4832 121.865C14.9567 121.593 15.1189 120.99 14.8455 120.518C14.5722 120.047 13.9668 119.885 13.4933 120.157C13.0199 120.43 12.8576 121.033 13.131 121.504C13.4043 121.976 14.0097 122.138 14.4832 121.865Z" fill="url(#paint7_linear_6_420)"/>
<path d="M9.90108 108.319C10.4478 108.319 10.891 107.878 10.891 107.333C10.891 106.788 10.4478 106.347 9.90108 106.347C9.35438 106.347 8.91119 106.788 8.91119 107.333C8.91119 107.878 9.35438 108.319 9.90108 108.319Z" fill="url(#paint8_linear_6_420)"/>
<path d="M24.3317 83.6809C24.8052 83.4086 24.9674 82.8055 24.6941 82.3339C24.4207 81.8622 23.8153 81.7006 23.3419 81.973C22.8684 82.2453 22.7062 82.8484 22.9795 83.32C23.2529 83.7916 23.8583 83.9532 24.3317 83.6809Z" fill="url(#paint9_linear_6_420)"/>
<path d="M38.04 80.1419C38.5135 79.8696 38.6757 79.2665 38.4024 78.7948C38.129 78.3232 37.5236 78.1616 37.0501 78.4339C36.5767 78.7062 36.4145 79.3093 36.6878 79.7809C36.9612 80.2526 37.5666 80.4142 38.04 80.1419Z" fill="url(#paint10_linear_6_420)"/>
<path d="M51.7481 83.682C52.2215 83.4097 52.3837 82.8066 52.1104 82.335C51.837 81.8633 51.2316 81.7017 50.7582 81.974C50.2847 82.2464 50.1225 82.8494 50.3959 83.3211C50.6692 83.7927 51.2746 83.9543 51.7481 83.682Z" fill="url(#paint11_linear_6_420)"/>
<path d="M61.9019 93.7979C62.3753 93.5256 62.5375 92.9225 62.2642 92.4508C61.9908 91.9792 61.3854 91.8176 60.912 92.0899C60.4385 92.3622 60.2763 92.9653 60.5497 93.4369C60.823 93.9086 61.4284 94.0702 61.9019 93.7979Z" fill="url(#paint12_linear_6_420)"/>
<path d="M61.649 121.868C62.1224 121.595 62.2847 120.992 62.0113 120.521C61.738 120.049 61.1326 119.887 60.6591 120.16C60.1857 120.432 60.0234 121.035 60.2968 121.507C60.5701 121.978 61.1755 122.14 61.649 121.868Z" fill="url(#paint13_linear_6_420)"/>
<path d="M51.2402 131.729C51.7136 131.457 51.8758 130.854 51.6025 130.382C51.3291 129.911 50.7237 129.749 50.2503 130.021C49.7768 130.294 49.6146 130.897 49.888 131.368C50.1613 131.84 50.7667 132.002 51.2402 131.729Z" fill="url(#paint14_linear_6_420)"/>
<path d="M38.039 134.765C38.5124 134.493 38.6747 133.89 38.4013 133.418C38.128 132.947 37.5226 132.785 37.0491 133.057C36.5756 133.33 36.4134 133.933 36.6868 134.404C36.9601 134.876 37.5655 135.038 38.039 134.765Z" fill="url(#paint15_linear_6_420)"/>
<path d="M24.8397 131.73C25.3131 131.458 25.4753 130.855 25.202 130.383C24.9286 129.912 24.3232 129.75 23.8498 130.022C23.3763 130.295 23.2141 130.898 23.4874 131.369C23.7608 131.841 24.3662 132.003 24.8397 131.73Z" fill="url(#paint16_linear_6_420)"/>
<path d="M37.5697 80.0208C37.9906 80.0208 38.3318 79.6809 38.3318 79.2616C38.3318 78.8423 37.9906 78.5024 37.5697 78.5024C37.1488 78.5024 36.8076 78.8423 36.8076 79.2616C36.8076 79.6809 37.1488 80.0208 37.5697 80.0208Z" fill="#69F0AE"/>
<path d="M51.9381 83.2997C52.1486 82.9365 52.0237 82.4722 51.6592 82.2625C51.2946 82.0529 50.8285 82.1773 50.6181 82.5404C50.4076 82.9036 50.5325 83.3679 50.897 83.5775C51.2615 83.7872 51.7277 83.6628 51.9381 83.2997Z" fill="#69F0AE"/>
<path d="M61.6933 93.5754C62.0578 93.3657 62.1827 92.9014 61.9723 92.5383C61.7618 92.1752 61.2957 92.0508 60.9312 92.2604C60.5667 92.4701 60.4418 92.9344 60.6522 93.2975C60.8627 93.6606 61.3288 93.7851 61.6933 93.5754Z" fill="#69F0AE"/>
<path d="M61.8136 121.392C62.024 121.028 61.8991 120.564 61.5346 120.354C61.1701 120.145 60.704 120.269 60.4935 120.632C60.2831 120.995 60.408 121.46 60.7725 121.669C61.137 121.879 61.6031 121.755 61.8136 121.392Z" fill="#69F0AE"/>
<path d="M51.1263 131.481C51.4908 131.271 51.6157 130.807 51.4053 130.444C51.1948 130.081 50.7287 129.956 50.3642 130.166C49.9997 130.376 49.8748 130.84 50.0852 131.203C50.2957 131.566 50.7618 131.691 51.1263 131.481Z" fill="#69F0AE"/>
<path d="M24.242 83.5799C24.6065 83.3702 24.7314 82.9059 24.521 82.5428C24.3105 82.1796 23.8444 82.0552 23.4799 82.2649C23.1154 82.4745 22.9905 82.9388 23.2009 83.302C23.4114 83.6651 23.8775 83.7895 24.242 83.5799Z" fill="#69F0AE"/>
<path d="M14.488 93.2979C14.6984 92.9348 14.5736 92.4705 14.209 92.2608C13.8445 92.0512 13.3784 92.1756 13.168 92.5387C12.9575 92.9019 13.0824 93.3662 13.4469 93.5758C13.8114 93.7855 14.2775 93.6611 14.488 93.2979Z" fill="#69F0AE"/>
<path d="M65.7114 108.213C66.1849 107.94 66.3471 107.337 66.0737 106.866C65.8004 106.394 65.195 106.232 64.7215 106.505C64.2481 106.777 64.0859 107.38 64.3592 107.852C64.6326 108.323 65.238 108.485 65.7114 108.213Z" fill="#69F0AE"/>
<path d="M14.3693 121.669C14.7338 121.459 14.8587 120.995 14.6483 120.632C14.4378 120.269 13.9717 120.144 13.6072 120.354C13.2427 120.564 13.1178 121.028 13.3282 121.391C13.5387 121.754 14.0048 121.879 14.3693 121.669Z" fill="#69F0AE"/>
<path d="M25.0541 131.204C25.2646 130.841 25.1397 130.377 24.7752 130.167C24.4107 129.957 23.9445 130.082 23.7341 130.445C23.5236 130.808 23.6485 131.272 24.013 131.482C24.3776 131.692 24.8437 131.567 25.0541 131.204Z" fill="#69F0AE"/>
<path d="M9.90107 108.092C10.322 108.092 10.6632 107.752 10.6632 107.333C10.6632 106.914 10.322 106.574 9.90107 106.574C9.48016 106.574 9.13895 106.914 9.13895 107.333C9.13895 107.752 9.48016 108.092 9.90107 108.092Z" fill="#69F0AE"/>
<path d="M37.5697 134.643C37.9906 134.643 38.3318 134.303 38.3318 133.884C38.3318 133.464 37.9906 133.125 37.5697 133.125C37.1488 133.125 36.8076 133.464 36.8076 133.884C36.8076 134.303 37.1488 134.643 37.5697 134.643Z" fill="#69F0AE"/>
<path opacity="0.2" d="M9.39299 109.355C9.39495 102.835 11.5583 96.4987 15.5471 91.3296C19.5358 86.1604 25.1266 82.4482 31.4509 80.7697C37.7752 79.0912 44.4789 79.5404 50.5206 82.0474C56.5623 84.5544 61.6037 88.9789 64.8617 94.6336C63.263 90.9341 60.923 87.5987 57.9851 84.8316C55.0471 82.0646 51.573 79.9241 47.7756 78.5413C43.9782 77.1585 39.9374 76.5625 35.9007 76.7898C31.864 77.0172 27.9164 78.063 24.2996 79.8633C20.6828 81.6636 17.473 84.1804 14.8668 87.2597C12.2606 90.339 10.3129 93.9158 9.14285 97.7712C7.97283 101.627 7.60519 105.679 8.06243 109.681C8.51967 113.683 9.79218 117.55 11.802 121.045C10.2077 117.352 9.3879 113.375 9.39299 109.355Z" fill="#15C56E"/>
<path d="M37.5697 107.839C38.2713 107.839 38.84 107.273 38.84 106.574C38.84 105.875 38.2713 105.308 37.5697 105.308C36.8682 105.308 36.2995 105.875 36.2995 106.574C36.2995 107.273 36.8682 107.839 37.5697 107.839Z" fill="#69F0AE"/>
</g>
<defs>
<linearGradient id="paint0_linear_6_420" x1="95.3993" y1="115.409" x2="95.3993" y2="0" gradientUnits="userSpaceOnUse">
<stop stop-color="#808080" stop-opacity="0.25"/>
<stop offset="0.54" stop-color="#808080" stop-opacity="0.12"/>
<stop offset="1" stop-color="#808080" stop-opacity="0.1"/>
</linearGradient>
<linearGradient id="paint1_linear_6_420" x1="72896.8" y1="41861.3" x2="72896.8" y2="8165.93" gradientUnits="userSpaceOnUse">
<stop stop-color="#808080" stop-opacity="0.25"/>
<stop offset="0.54" stop-color="#808080" stop-opacity="0.12"/>
<stop offset="1" stop-color="#808080" stop-opacity="0.1"/>
</linearGradient>
<linearGradient id="paint2_linear_6_420" x1="12890.2" y1="49475.5" x2="12890.2" y2="23793.7" gradientUnits="userSpaceOnUse">
<stop stop-color="#808080" stop-opacity="0.25"/>
<stop offset="0.54" stop-color="#808080" stop-opacity="0.12"/>
<stop offset="1" stop-color="#808080" stop-opacity="0.1"/>
</linearGradient>
<linearGradient id="paint3_linear_6_420" x1="645.175" y1="1862.13" x2="645.175" y2="1804.69" gradientUnits="userSpaceOnUse">
<stop stop-color="#808080" stop-opacity="0.25"/>
<stop offset="0.54" stop-color="#808080" stop-opacity="0.12"/>
<stop offset="1" stop-color="#808080" stop-opacity="0.1"/>
</linearGradient>
<linearGradient id="paint4_linear_6_420" x1="2168.14" y1="11510.2" x2="2168.14" y2="9012.4" gradientUnits="userSpaceOnUse">
<stop stop-color="#808080" stop-opacity="0.25"/>
<stop offset="0.54" stop-color="#808080" stop-opacity="0.12"/>
<stop offset="1" stop-color="#808080" stop-opacity="0.1"/>
</linearGradient>
<linearGradient id="paint5_linear_6_420" x1="1434.32" y1="6758.87" x2="1434.32" y2="6074.7" gradientUnits="userSpaceOnUse">
<stop stop-color="#808080" stop-opacity="0.25"/>
<stop offset="0.54" stop-color="#808080" stop-opacity="0.12"/>
<stop offset="1" stop-color="#808080" stop-opacity="0.1"/>
</linearGradient>
<linearGradient id="paint6_linear_6_420" x1="-802.594" y1="1655.03" x2="-787.142" y2="1646.07" gradientUnits="userSpaceOnUse">
<stop stop-color="#808080" stop-opacity="0.25"/>
<stop offset="0.54" stop-color="#808080" stop-opacity="0.12"/>
<stop offset="1" stop-color="#808080" stop-opacity="0.1"/>
</linearGradient>
<linearGradient id="paint7_linear_6_420" x1="500.161" y1="1459.48" x2="500.161" y2="1441.67" gradientUnits="userSpaceOnUse">
<stop stop-color="#808080" stop-opacity="0.25"/>
<stop offset="0.54" stop-color="#808080" stop-opacity="0.12"/>
<stop offset="1" stop-color="#808080" stop-opacity="0.1"/>
</linearGradient>
<linearGradient id="paint8_linear_6_420" x1="-154.934" y1="1687.99" x2="-146.036" y2="1672.52" gradientUnits="userSpaceOnUse">
<stop stop-color="#808080" stop-opacity="0.25"/>
<stop offset="0.54" stop-color="#808080" stop-opacity="0.12"/>
<stop offset="1" stop-color="#808080" stop-opacity="0.1"/>
</linearGradient>
<linearGradient id="paint9_linear_6_420" x1="-1352.43" y1="1274.29" x2="-1334.53" y2="1274.29" gradientUnits="userSpaceOnUse">
<stop stop-color="#808080" stop-opacity="0.25"/>
<stop offset="0.54" stop-color="#808080" stop-opacity="0.12"/>
<stop offset="1" stop-color="#808080" stop-opacity="0.1"/>
</linearGradient>
<linearGradient id="paint10_linear_6_420" x1="-1224.96" y1="1255.96" x2="-1207.06" y2="1255.96" gradientUnits="userSpaceOnUse">
<stop stop-color="#808080" stop-opacity="0.25"/>
<stop offset="0.54" stop-color="#808080" stop-opacity="0.12"/>
<stop offset="1" stop-color="#808080" stop-opacity="0.1"/>
</linearGradient>
<linearGradient id="paint11_linear_6_420" x1="-1104.58" y1="1301.6" x2="-1086.7" y2="1301.6" gradientUnits="userSpaceOnUse">
<stop stop-color="#808080" stop-opacity="0.25"/>
<stop offset="0.54" stop-color="#808080" stop-opacity="0.12"/>
<stop offset="1" stop-color="#808080" stop-opacity="0.1"/>
</linearGradient>
<linearGradient id="paint12_linear_6_420" x1="-1022.94" y1="1403.18" x2="-1005.05" y2="1403.18" gradientUnits="userSpaceOnUse">
<stop stop-color="#808080" stop-opacity="0.25"/>
<stop offset="0.54" stop-color="#808080" stop-opacity="0.12"/>
<stop offset="1" stop-color="#808080" stop-opacity="0.1"/>
</linearGradient>
<linearGradient id="paint13_linear_6_420" x1="-1053.42" y1="1656.66" x2="-1035.52" y2="1656.66" gradientUnits="userSpaceOnUse">
<stop stop-color="#808080" stop-opacity="0.25"/>
<stop offset="0.54" stop-color="#808080" stop-opacity="0.12"/>
<stop offset="1" stop-color="#808080" stop-opacity="0.1"/>
</linearGradient>
<linearGradient id="paint14_linear_6_420" x1="-1157.4" y1="1735.45" x2="-1139.52" y2="1735.45" gradientUnits="userSpaceOnUse">
<stop stop-color="#808080" stop-opacity="0.25"/>
<stop offset="0.54" stop-color="#808080" stop-opacity="0.12"/>
<stop offset="1" stop-color="#808080" stop-opacity="0.1"/>
</linearGradient>
<linearGradient id="paint15_linear_6_420" x1="-1279.79" y1="1749.74" x2="-1261.9" y2="1749.74" gradientUnits="userSpaceOnUse">
<stop stop-color="#808080" stop-opacity="0.25"/>
<stop offset="0.54" stop-color="#808080" stop-opacity="0.12"/>
<stop offset="1" stop-color="#808080" stop-opacity="0.1"/>
</linearGradient>
<linearGradient id="paint16_linear_6_420" x1="-1396.07" y1="1709.15" x2="-1378.19" y2="1709.15" gradientUnits="userSpaceOnUse">
<stop stop-color="#808080" stop-opacity="0.25"/>
<stop offset="0.54" stop-color="#808080" stop-opacity="0.12"/>
<stop offset="1" stop-color="#808080" stop-opacity="0.1"/>
</linearGradient>
<clipPath id="clip0_6_420">
<rect width="183" height="144" fill="white"/>
</clipPath>
</defs>
</svg>
