<svg width="236" height="145" viewBox="0 0 236 145" fill="none" xmlns="http://www.w3.org/2000/svg">
<g clip-path="url(#clip0_7_178)">
<path opacity="0.1" d="M235.999 93.1301C236.003 97.0587 235.528 100.973 234.583 104.787C234.265 106.072 233.896 107.33 233.475 108.561C232.96 110.081 232.363 111.573 231.687 113.029C231.347 113.765 230.987 114.487 230.607 115.194C230.614 119.223 229.783 123.209 228.169 126.901C225.251 133.524 220.047 138.88 213.506 141.992C209.416 143.941 204.947 144.966 200.416 144.994H44.8001C37.8765 145.009 31.0724 143.192 25.0797 139.728L24.9875 139.676C24.134 139.177 23.3018 138.649 22.4909 138.091C20.6666 136.832 18.9526 135.421 17.3675 133.872C15.222 131.778 13.3314 129.438 11.7351 126.901C7.98571 120.954 5.9995 114.068 6.00647 107.04C2.20945 100.385 -0.00463867 92.4135 -0.00463867 83.8473C-0.00463867 73.0394 3.51386 63.1802 9.29454 55.7167C10.4997 54.1574 11.8198 52.6903 13.2438 51.3275C14.6489 49.979 16.1591 48.7442 17.7602 47.6348C19.0412 46.7463 20.3799 45.9439 21.7676 45.2331C22.3467 44.9388 22.9277 44.6606 23.5188 44.4024C24.0378 44.1723 24.5628 43.9581 25.0937 43.756C25.7309 43.5145 26.3761 43.2923 27.0293 43.0895C27.6825 42.8867 28.327 42.7092 28.9629 42.5571C29.8979 42.3289 30.849 42.1435 31.8162 42.0007C32.6176 41.8826 33.4191 41.8005 34.2206 41.7385C34.8578 41.6905 35.501 41.6644 36.1482 41.6564H36.4988C37.2121 41.6564 37.9214 41.6845 38.6247 41.7325C38.6989 41.5844 38.779 41.4343 38.8531 41.2882C39.1337 40.7538 39.4242 40.2214 39.7167 39.701C39.7161 39.6964 39.7161 39.6916 39.7167 39.687C39.7668 39.5949 39.8169 39.5049 39.869 39.4168C40.1055 38.9905 40.3519 38.5682 40.6044 38.1499C40.7206 37.9497 40.8348 37.7616 40.953 37.5735C40.978 37.5267 41.0055 37.4813 41.0352 37.4374C41.1554 37.2372 41.2776 37.0371 41.4019 36.8369C42.0203 35.8495 42.6635 34.8795 43.3314 33.9268L43.5017 33.6826C43.6059 33.5345 43.7021 33.3904 43.8183 33.2423C44.0948 32.856 44.3794 32.4677 44.6659 32.0874C44.8663 31.8152 45.0666 31.545 45.283 31.2869C45.804 30.6197 46.3383 29.9526 46.886 29.2854C47.4337 28.6182 48.0027 27.9598 48.5932 27.31C48.6733 27.2199 48.7534 27.1318 48.8376 27.0438L49.6932 26.1111C49.7353 26.067 49.7713 26.027 49.8114 25.987C49.9136 25.8769 50.0118 25.7668 50.122 25.6607C50.5808 25.1744 51.0517 24.698 51.5246 24.2237C53.9311 21.8294 56.4949 19.5982 59.1987 17.5448C59.3049 17.4608 59.4131 17.3807 59.5193 17.3006C60.0283 16.9184 60.5452 16.5401 61.0622 16.1678C63.9057 14.1302 66.878 12.2783 69.9606 10.6238C70.173 10.5017 70.3894 10.3876 70.6078 10.2755C73.3715 8.81506 76.2137 7.50811 79.1216 6.36064C80.7065 5.73418 82.3275 5.14575 83.9585 4.60736C85.0445 4.2511 86.1345 3.91285 87.2385 3.59462C88.9644 3.09825 90.7023 2.65326 92.4522 2.25964C97.6075 1.10417 102.852 0.390389 108.129 0.126082C109.732 0.0446888 111.353 0.00265863 112.992 -9.99235e-06C120.901 -0.0104684 128.779 0.984922 136.435 2.96215C136.515 3.08166 136.623 3.17908 136.75 3.24526C136.877 3.31143 137.019 3.34419 137.163 3.34043H137.836C138.129 3.42049 138.419 3.50055 138.712 3.58461C140.345 4.05429 141.956 4.56733 143.543 5.12373L143.943 5.26784C147.86 6.65905 151.671 8.33129 155.346 10.2715C158.659 12.0163 161.849 13.985 164.894 16.1638C165.363 16.5001 165.825 16.839 166.281 17.1805C166.834 16.827 167.396 16.488 167.968 16.1638C170.176 14.9078 172.521 13.9092 174.957 13.1876C180.05 11.6822 185.438 11.4716 190.634 12.5752C197.296 13.9862 203.327 17.4888 208.198 22.4704C210.181 24.5087 211.947 26.7477 213.466 29.1513C213.576 29.3234 213.686 29.4976 213.792 29.6737C215.098 31.801 216.22 34.0354 217.147 36.3526C217.181 36.4386 217.215 36.5187 217.245 36.6027C218.1 38.7726 218.79 41.0039 219.309 43.2776C219.333 43.3937 219.361 43.5078 219.385 43.6239C219.87 45.8243 220.199 48.0561 220.371 50.3028C220.371 50.3828 220.371 50.4649 220.387 50.5489C220.471 51.7111 220.513 52.8853 220.515 54.0715C220.515 55.1323 220.479 56.1851 220.413 57.2298C220.413 57.3439 220.397 57.462 220.387 57.5801C220.369 57.8823 220.342 58.1805 220.316 58.4847C221.847 59.7178 223.279 61.0675 224.6 62.5217C225.184 63.1582 225.749 63.8186 226.295 64.5031C227.96 66.5865 229.422 68.8228 230.664 71.182C234.052 77.5707 235.999 85.0862 235.999 93.1301Z" fill="#15C56E"/>
<path opacity="0.1" d="M213.358 141.251C213.358 142.618 208.643 143.899 200.416 145H44.8008C37.8771 145.015 31.073 143.198 25.0803 139.734L24.9882 139.682C27.3525 138.821 31.6204 138.019 37.4291 137.294L37.6896 137.262C40.2944 136.944 43.2058 136.642 46.3877 136.356C46.4678 136.356 46.55 136.344 46.6301 136.334C49.1548 136.11 51.8404 135.899 54.687 135.703C54.7772 135.703 54.8654 135.687 54.9555 135.683C56.0536 135.604 57.1743 135.53 58.3177 135.459L58.7585 135.431C67.0839 134.915 76.5474 134.502 86.8104 134.23H86.8224C88.2597 134.19 89.7124 134.155 91.1805 134.124C92.8128 134.085 94.4652 134.051 96.1376 134.022C97.414 133.994 98.7064 133.974 100.003 133.954H100.033C105.882 133.866 111.925 133.822 118.104 133.822C133.384 133.822 147.827 134.1 160.625 134.6H160.661C162.628 134.676 164.56 134.761 166.444 134.847L168.046 134.923C170.172 135.024 172.242 135.133 174.258 135.249C197.962 136.596 213.358 138.783 213.358 141.251Z" fill="#15C56E"/>
<g opacity="0.2">
<path opacity="0.2" d="M136.308 132.903C136.301 133.119 136.277 133.334 136.234 133.546C134.839 133.324 133.437 133.124 132.026 132.945C132.026 132.889 132.026 132.831 132.026 132.773C132.039 132.173 132.212 131.587 132.527 131.076C132.94 130.423 133.567 130.015 134.258 130.037C134.949 130.059 135.548 130.505 135.919 131.18C136.199 131.71 136.334 132.304 136.308 132.903Z" fill="#3F3D56"/>
<path opacity="0.2" d="M136.423 129.483C136.472 127.935 135.552 126.65 134.369 126.613C133.185 126.575 132.186 127.8 132.137 129.348C132.088 130.896 133.008 132.181 134.191 132.218C135.375 132.255 136.374 131.031 136.423 129.483Z" fill="#3F3D56"/>
<path opacity="0.2" d="M136.532 126.056C136.581 124.509 135.662 123.223 134.478 123.186C133.295 123.149 132.295 124.373 132.247 125.921C132.198 127.469 133.117 128.754 134.301 128.791C135.484 128.829 136.483 127.604 136.532 126.056Z" fill="#3F3D56"/>
<path opacity="0.2" d="M136.64 122.63C136.689 121.082 135.769 119.797 134.585 119.76C133.402 119.722 132.403 120.947 132.354 122.495C132.305 124.042 133.225 125.327 134.408 125.365C135.592 125.402 136.591 124.178 136.64 122.63Z" fill="#3F3D56"/>
<path opacity="0.2" d="M136.747 119.203C136.796 117.655 135.876 116.37 134.693 116.333C133.509 116.296 132.51 117.52 132.461 119.068C132.412 120.616 133.332 121.901 134.515 121.938C135.699 121.976 136.698 120.751 136.747 119.203Z" fill="#3F3D56"/>
<path opacity="0.2" d="M127.311 95.4277C127.029 95.0461 126.775 94.6448 126.55 94.2269L132.212 93.4803L126.117 93.3342C125.573 92.0455 125.298 90.6594 125.309 89.2608C125.319 87.8623 125.616 86.4806 126.179 85.2003L134.218 89.6936L126.854 83.9213C127.597 82.7212 128.58 81.687 129.741 80.8832C130.902 80.0795 132.216 79.5235 133.602 79.25C134.988 78.9764 136.415 78.9912 137.795 79.2934C139.174 79.5957 140.477 80.1788 141.621 81.0065C142.765 81.8341 143.726 82.8885 144.444 84.1038C145.161 85.3191 145.621 86.6691 145.792 88.0696C145.964 89.47 145.845 90.8909 145.443 92.2434C145.04 93.5958 144.363 94.8509 143.453 95.9301C143.892 96.5237 144.265 97.1633 144.565 97.8375L137.133 101.4L145.014 99.0324C145.51 100.668 145.59 102.402 145.247 104.076C144.903 105.75 144.147 107.313 143.046 108.621C144.19 110.172 144.875 112.013 145.021 113.934C145.167 115.854 144.769 117.777 143.872 119.483C142.975 121.188 141.616 122.607 139.95 123.577C138.284 124.548 136.379 125.03 134.451 124.969C132.524 124.908 130.652 124.307 129.051 123.234C127.449 122.161 126.183 120.659 125.395 118.901C124.608 117.142 124.332 115.198 124.599 113.29C124.866 111.383 125.665 109.589 126.904 108.113C125.538 106.26 124.834 104.002 124.907 101.701C124.979 99.4005 125.824 97.191 127.305 95.4277H127.311Z" fill="#15C56E"/>
<path opacity="0.1" d="M145.451 102.349C145.381 104.651 144.533 106.861 143.046 108.621C144.19 110.172 144.875 112.013 145.021 113.934C145.167 115.854 144.769 117.777 143.872 119.483C142.975 121.188 141.616 122.607 139.95 123.577C138.284 124.548 136.379 125.03 134.451 124.969C132.524 124.909 130.652 124.307 129.051 123.234C127.449 122.161 126.183 120.659 125.395 118.901C124.608 117.142 124.332 115.198 124.599 113.291C124.866 111.383 125.665 109.589 126.904 108.113C125.588 106.326 145.487 101.198 145.451 102.349Z" fill="black"/>
</g>
<g opacity="0.2">
<path opacity="0.2" d="M105.852 132.903C105.845 133.119 105.82 133.334 105.777 133.546C104.383 133.324 102.98 133.124 101.57 132.945C101.57 132.889 101.57 132.831 101.57 132.773C101.583 132.173 101.756 131.587 102.071 131.076C102.483 130.423 103.11 130.015 103.802 130.037C104.493 130.059 105.092 130.505 105.463 131.18C105.743 131.71 105.877 132.304 105.852 132.903Z" fill="#3F3D56"/>
<path opacity="0.2" d="M105.964 129.484C106.013 127.936 105.094 126.651 103.91 126.614C102.727 126.576 101.728 127.801 101.679 129.349C101.63 130.896 102.549 132.182 103.733 132.219C104.916 132.256 105.916 131.032 105.964 129.484Z" fill="#3F3D56"/>
<path opacity="0.2" d="M106.074 126.057C106.123 124.509 105.203 123.224 104.02 123.187C102.836 123.15 101.837 124.374 101.788 125.922C101.739 127.47 102.659 128.755 103.842 128.792C105.026 128.83 106.025 127.605 106.074 126.057Z" fill="#3F3D56"/>
<path opacity="0.2" d="M106.181 122.631C106.23 121.083 105.31 119.798 104.127 119.76C102.943 119.723 101.944 120.948 101.895 122.495C101.846 124.043 102.766 125.328 103.95 125.366C105.133 125.403 106.132 124.179 106.181 122.631Z" fill="#3F3D56"/>
<path opacity="0.2" d="M106.288 119.204C106.337 117.656 105.418 116.371 104.234 116.334C103.051 116.296 102.052 117.521 102.003 119.069C101.954 120.617 102.873 121.902 104.057 121.939C105.24 121.976 106.239 120.752 106.288 119.204Z" fill="#3F3D56"/>
<path opacity="0.2" d="M96.8549 95.4277C96.5728 95.0461 96.3183 94.6448 96.0935 94.2269L101.756 93.4803L95.6607 93.3342C95.1168 92.0455 94.8418 90.6594 94.8524 89.2608C94.8631 87.8623 95.1593 86.4806 95.7229 85.2003L103.762 89.6936L96.3981 83.9213C97.1409 82.7212 98.1235 81.687 99.2845 80.8832C100.445 80.0795 101.76 79.5235 103.146 79.25C104.531 78.9764 105.959 78.9912 107.338 79.2934C108.718 79.5957 110.021 80.1788 111.165 81.0065C112.309 81.8341 113.27 82.8885 113.987 84.1038C114.705 85.3191 115.164 86.6691 115.336 88.0696C115.508 89.47 115.389 90.8909 114.987 92.2434C114.584 93.5958 113.907 94.8509 112.997 95.9301C113.436 96.5237 113.809 97.1633 114.109 97.8375L106.677 101.4L114.558 99.0324C115.054 100.668 115.134 102.402 114.79 104.076C114.447 105.75 113.69 107.313 112.59 108.621C113.734 110.172 114.418 112.013 114.564 113.934C114.71 115.854 114.312 117.777 113.416 119.483C112.519 121.188 111.16 122.607 109.494 123.577C107.828 124.548 105.923 125.03 103.995 124.969C102.068 124.908 100.196 124.307 98.5947 123.234C96.9933 122.161 95.7265 120.659 94.9392 118.901C94.1519 117.142 93.8759 115.198 94.1427 113.29C94.4096 111.383 95.2085 109.589 96.4482 108.113C95.0813 106.26 94.3776 104.002 94.4503 101.701C94.523 99.4005 95.3678 97.191 96.8489 95.4277H96.8549Z" fill="#15C56E"/>
<path opacity="0.1" d="M114.994 102.349C114.924 104.651 114.077 106.861 112.59 108.621C113.734 110.172 114.418 112.013 114.564 113.934C114.71 115.854 114.312 117.777 113.416 119.483C112.519 121.188 111.16 122.607 109.494 123.577C107.828 124.548 105.923 125.03 103.995 124.969C102.068 124.909 100.196 124.307 98.5947 123.234C96.9932 122.161 95.7265 120.659 94.9392 118.901C94.1519 117.142 93.8759 115.198 94.1427 113.291C94.4096 111.383 95.2085 109.589 96.4482 108.113C95.1318 106.326 115.031 101.198 114.994 102.349Z" fill="black"/>
</g>
<g opacity="0.2">
<path opacity="0.2" d="M189.045 135.093C189.03 135.502 188.981 135.909 188.899 136.31C186.214 135.881 183.51 135.498 180.786 135.161C180.786 135.053 180.786 134.943 180.786 134.831C180.811 133.675 181.145 132.547 181.752 131.562C182.553 130.307 183.755 129.521 185.084 129.561C186.412 129.601 187.569 130.463 188.29 131.762C188.834 132.786 189.095 133.935 189.045 135.093Z" fill="#3F3D56"/>
<path opacity="0.2" d="M189.263 128.503C189.358 125.522 187.586 123.048 185.306 122.976C183.027 122.904 181.102 125.262 181.008 128.243C180.914 131.223 182.685 133.698 184.965 133.77C187.245 133.842 189.169 131.484 189.263 128.503Z" fill="#3F3D56"/>
<path opacity="0.2" d="M189.472 121.906C189.566 118.925 187.794 116.451 185.515 116.379C183.235 116.307 181.311 118.665 181.216 121.646C181.122 124.627 182.894 127.101 185.173 127.173C187.453 127.245 189.377 124.887 189.472 121.906Z" fill="#3F3D56"/>
<path opacity="0.2" d="M189.682 115.309C189.776 112.329 188.005 109.854 185.725 109.782C183.445 109.71 181.521 112.068 181.427 115.049C181.332 118.03 183.104 120.504 185.384 120.576C187.663 120.648 189.588 118.29 189.682 115.309Z" fill="#3F3D56"/>
<path opacity="0.2" d="M189.655 108.412C189.745 105.43 187.968 102.957 185.688 102.889C183.407 102.82 181.485 105.183 181.396 108.165C181.306 111.147 183.083 113.62 185.363 113.689C187.644 113.757 189.566 111.395 189.655 108.412Z" fill="#3F3D56"/>
<path opacity="0.2" d="M171.723 62.948C171.183 62.2133 170.693 61.4422 170.259 60.6403L181.159 59.2033L169.427 58.9211C168.379 56.4402 167.849 53.7719 167.869 51.0794C167.889 48.3868 168.459 45.7267 169.543 43.2616L185.022 51.9099L170.848 40.7978C172.281 38.4929 174.174 36.5076 176.409 34.9655C178.644 33.4235 181.173 32.3577 183.838 31.8348C186.504 31.3118 189.248 31.3428 191.901 31.9258C194.554 32.5088 197.058 33.6313 199.258 35.2234C201.457 36.8155 203.305 38.8431 204.686 41.1797C206.066 43.5164 206.95 46.112 207.283 48.8049C207.615 51.4978 207.389 54.2302 206.618 56.8318C205.846 59.4335 204.547 61.8486 202.801 63.9267C203.645 65.0704 204.363 66.3018 204.943 67.5994L190.634 74.4624L205.804 69.8991C206.76 73.0443 206.916 76.3779 206.257 79.5983C205.598 82.8187 204.146 85.8242 202.031 88.3426C204.233 91.3278 205.55 94.8717 205.831 98.5692C206.112 102.267 205.345 105.968 203.619 109.251C201.893 112.534 199.277 115.266 196.07 117.133C192.863 119.001 189.194 119.929 185.484 119.812C181.773 119.696 178.171 118.538 175.088 116.472C172.005 114.407 169.566 111.516 168.051 108.131C166.535 104.746 166.003 101.004 166.517 97.3311C167.03 93.6586 168.568 90.2045 170.954 87.3639C168.324 83.7966 166.97 79.4501 167.109 75.022C167.249 70.5939 168.874 66.341 171.723 62.946V62.948Z" fill="#15C56E"/>
<path opacity="0.1" d="M206.648 76.2697C206.516 80.6987 204.893 84.9539 202.039 88.3466C204.242 91.3317 205.558 94.8757 205.839 98.5732C206.12 102.271 205.353 105.972 203.627 109.255C201.901 112.538 199.285 115.27 196.078 117.137C192.871 119.005 189.202 119.933 185.492 119.816C181.781 119.699 178.179 118.542 175.096 116.476C172.013 114.411 169.574 111.52 168.059 108.135C166.543 104.75 166.011 101.008 166.525 97.3351C167.038 93.6626 168.576 90.2085 170.962 87.3679C168.409 83.9233 206.718 74.0541 206.648 76.2697Z" fill="black"/>
</g>
<path d="M31.6224 135.445L33.7243 135.439H36.6878L40.4347 74.6386L77.5413 12.7874L75.9283 11.0581V6.67889L35.7982 73.2055L31.6224 135.445Z" fill="#F1C0C0"/>
<path opacity="0.1" d="M33.9487 135.439H36.6878L40.4347 74.6386L77.5413 12.7874L75.9283 11.0581L37.6536 73.7119L33.9487 135.439Z" fill="black"/>
<path d="M25.429 135.951L121.577 143.301L121.659 143.307L214.709 137.591L214.779 137.587V133.662L112.249 131.782L26.7094 131.7H26.0842L26.0161 132.141L25.429 135.951Z" fill="#F1C0C0"/>
<path opacity="0.1" d="M25.429 135.951L121.577 143.301L121.659 143.307L214.709 137.591L214.779 137.515V133.744H214.697L121.577 136.85L26.7094 131.7H26.6953L26.527 131.81L26.0161 132.141L25.429 135.951Z" fill="black"/>
<path opacity="0.1" d="M25.429 135.951L121.577 143.301V136.85L26.527 131.81L26.0161 132.141L25.429 135.951Z" fill="black"/>
<path d="M75.9163 10.976L118.305 56.4212L116.994 136.36L120.595 136.794L120.655 136.802H124.256L124.686 59.8538L204.059 86.3371L205.397 133.492L208.295 133.816L209.277 133.926L207.004 83.0667L124.031 53.9695L78.5351 6.72491H75.9163V10.976Z" fill="#F1C0C0"/>
<path opacity="0.1" d="M124.36 58.3827L124.686 59.8538L204.059 86.3371L205.397 133.492L208.295 133.816L206.023 85.3564L124.36 58.3827Z" fill="black"/>
<path opacity="0.1" d="M75.9163 10.976L118.305 56.4212L116.994 136.36L120.595 136.794L121.577 53.8053L75.9163 6.72491V10.976Z" fill="black"/>
<path d="M124.514 90.4641L153.626 96.1903L153.636 96.1923L204.624 106.226L206.958 105.291L206.95 105.127L206.798 101.874L124.544 85.2723L124.514 90.4641Z" fill="#F1C0C0"/>
<path opacity="0.1" d="M153.636 96.1923L204.624 106.226L206.958 105.291L206.95 105.127L153.636 96.1923Z" fill="black"/>
<path d="M155.585 70.1633L156.373 113.463L156.78 135.677L160.364 135.557L162.62 135.481L161.919 70.7898L160.364 70.2734L160.024 70.1633H155.585Z" fill="#F1C0C0"/>
<path opacity="0.1" d="M155.617 70.1533V70.1633L156.373 113.463L156.78 135.677L160.364 135.557V70.1533H155.617Z" fill="black"/>
<path d="M99.4357 81.2214C99.646 81.3355 99.847 81.466 100.037 81.6116C100.261 81.8079 100.463 82.0288 100.638 82.2701C101.498 83.3809 102.291 84.6719 102.207 86.0729C102.209 86.2768 102.17 86.479 102.093 86.6679C102.017 86.8568 101.903 87.0287 101.76 87.1737C101.405 87.476 100.896 87.49 100.432 87.49C99.9266 87.49 99.3957 87.49 98.9588 87.2298C98.522 86.9696 98.1574 86.4632 97.6404 86.4752C97.5674 86.4873 97.493 86.4873 97.42 86.4752C97.2417 86.4172 97.2056 86.183 97.0894 86.0349C96.889 85.7687 96.4662 85.8348 96.1517 85.9508C95.8371 86.0669 95.4884 86.241 95.1779 86.1069C94.9976 86.0119 94.8502 85.8647 94.7551 85.6846C94.0117 84.4838 93.8534 83.0407 93.7132 81.6457C93.627 80.7971 92.9698 77.9029 94.7831 78.5614C95.5846 78.8496 96.334 79.426 97.0633 79.8484L99.4357 81.2214Z" fill="#3F3D56"/>
<path d="M97.6444 81.5076C97.8064 81.624 98.0027 81.6828 98.202 81.6749C98.4014 81.6669 98.5923 81.5925 98.7444 81.4636C99.0428 81.1943 99.2329 80.8258 99.2794 80.4268C99.4798 80.3648 99.582 80.6269 99.7102 80.7871C99.9346 81.0593 100.391 81.0553 100.596 81.3455C100.738 81.5456 100.706 81.8238 100.806 82.05C100.936 82.3422 101.259 82.4943 101.479 82.7305C101.688 82.9885 101.838 83.2881 101.92 83.6091L102.249 84.5939C102.406 85.0034 102.507 85.4322 102.549 85.8688C102.57 86.087 102.547 86.3072 102.482 86.5165C102.416 86.7257 102.31 86.9199 102.169 87.0877C101.728 87.562 101.005 87.6121 100.365 87.598C100.152 87.6026 99.9389 87.5777 99.7323 87.524C99.1652 87.3479 98.8026 86.7775 98.6523 86.203C98.502 85.6286 98.518 85.0262 98.4299 84.4377C98.3346 83.8597 98.1663 83.2962 97.9289 82.7605C97.7526 82.3442 97.2677 81.7237 97.2757 81.2814C97.42 81.2814 97.5242 81.4135 97.6444 81.5076Z" fill="#3F3D56"/>
<path d="M98.3637 79.4801C98.27 79.196 98.2154 78.9004 98.2014 78.6015C98.2014 78.0011 98.4759 77.4367 98.7524 76.9003L96.4622 77.2105C96.1857 77.2485 95.8771 77.3046 95.7208 77.5347C95.6615 77.6488 95.6305 77.7754 95.6305 77.904C95.6305 78.0325 95.6615 78.1592 95.7208 78.2733C95.8357 78.5016 95.927 78.741 95.9934 78.9878C95.9985 79.2037 96.0234 79.4188 96.0675 79.6303C96.1388 79.7856 96.2387 79.9262 96.362 80.0446C97.0172 80.7691 97.5081 81.6237 97.997 82.4703C97.983 82.4463 99.3776 81.3675 99.3215 81.0153C99.2894 80.8151 98.8867 80.5749 98.7584 80.3828C98.5813 80.1039 98.4482 79.7995 98.3637 79.4801Z" fill="#BE6F72"/>
<path d="M118 71.6604V73.6318L84.2036 80.2167L82.4503 81.2774H76.4012V80.1666L109.607 72.1528L118 71.6604Z" fill="#F1C0C0"/>
<path opacity="0.1" d="M118 73.6318L84.2036 80.2166L82.4503 81.2774H76.4012L109.853 74.1262L118 73.6318Z" fill="black"/>
<path d="M90.8659 127.625C90.4893 127.17 89.9695 126.855 89.391 126.732C88.8125 126.609 88.2095 126.686 87.68 126.949C87.5666 127.002 87.4667 127.08 87.3874 127.177C87.1871 127.457 87.3153 127.843 87.3333 128.19C87.3794 129.034 86.7062 129.721 86.1011 130.311C85.7765 130.628 85.4458 130.966 85.2996 131.396C85.1533 131.826 85.2615 132.373 85.6542 132.597C85.8256 132.683 86.0121 132.734 86.2032 132.749C86.8437 132.874 87.5004 132.892 88.1468 132.803C88.786 132.681 89.4132 132.319 89.6897 131.73C89.743 131.571 89.8313 131.425 89.9482 131.304C90.3008 131.026 90.8418 131.352 91.2426 131.154C91.5732 130.99 91.5872 130.732 91.5912 130.391C91.6032 129.451 91.463 128.386 90.8659 127.625Z" fill="#15C56E"/>
<path d="M95.6748 127.589C95.9212 128.238 95.9553 128.944 95.9873 129.637C96.0054 130.037 96.0174 130.465 95.801 130.804C95.5846 131.142 95.1618 131.32 94.7571 131.404C93.9215 131.576 92.9537 131.414 92.4147 130.752C92.002 130.245 91.9158 129.551 91.992 128.894C92.0561 128.356 92.1923 127.725 91.8056 127.343C91.7054 127.241 91.5752 127.169 91.483 127.059C91.2826 126.815 91.3147 126.446 91.4229 126.146C91.5638 125.859 91.6694 125.556 91.7375 125.244C91.7535 125.095 94.4505 125.348 94.699 125.47C95.0376 125.636 94.9855 125.914 95.0877 126.25C95.2299 126.719 95.5024 127.141 95.6748 127.589Z" fill="#15C56E"/>
<path d="M96.1697 98.8363C96.6986 99.1785 96.903 99.851 96.9852 100.475C97.2116 102.187 96.8149 103.916 96.7848 105.643C96.7568 108.063 97.458 110.527 96.8589 112.871C96.5003 114.272 96.8048 115.873 96.4682 117.288C96.368 117.708 96.1837 118.104 96.0875 118.525C95.8872 119.435 96.0975 120.388 96.3801 121.279C96.4703 121.519 96.5276 121.77 96.5504 122.025C96.5368 122.418 96.4369 122.804 96.2578 123.154L95.0556 125.994C94.9214 126.312 94.3924 126.364 94.0538 126.406C93.4166 126.483 92.7053 126.537 92.1983 126.142C91.6914 125.748 91.5692 125.087 91.491 124.471C91.3411 123.288 91.2742 122.095 91.2907 120.902C91.3127 120.591 91.2849 120.278 91.2085 119.976C91.0983 119.633 90.8559 119.337 90.7897 118.975C90.7056 118.507 90.944 118.046 91.0322 117.574C91.0926 117.143 91.0859 116.704 91.0121 116.275C90.934 115.635 90.8438 114.994 90.7416 114.358C90.5974 113.467 90.8038 112.588 90.942 111.696C91.0723 110.857 90.9059 110.002 90.7416 109.17C90.7558 109.846 90.6715 110.52 90.4912 111.171C90.385 111.49 90.2327 111.794 90.1405 112.118C89.7298 113.573 90.6054 115.1 90.4812 116.607C90.4231 117.312 90.1465 118.008 90.2247 118.703C90.2788 119.211 90.5152 119.678 90.6775 120.162C90.8398 120.646 90.924 121.201 90.6775 121.653C90.0263 122.882 90.5132 124.553 91.0963 125.814C91.2147 126.038 91.3177 126.269 91.4049 126.507C91.5772 127.075 91.4329 127.685 91.479 128.278C91.3112 128.305 91.1393 128.294 90.9765 128.245C90.8136 128.196 90.6641 128.111 90.5393 127.996C90.4511 127.904 90.379 127.795 90.2928 127.699C90.0521 127.47 89.7671 127.292 89.4553 127.177C89.2722 127.075 89.0636 127.027 88.8542 127.039C88.634 127.1 88.4359 127.223 88.2831 127.393C88.0849 127.567 87.8747 127.727 87.6539 127.872C87.5599 127.944 87.45 127.992 87.3333 128.014C87.2747 128.023 87.2147 128.013 87.1618 127.986C87.1089 127.959 87.0659 127.916 87.0388 127.864C87.0263 127.83 87.0188 127.795 87.0168 127.759C86.9423 127.155 86.9029 126.547 86.8985 125.938C86.8985 124.891 85.6442 124.171 85.4859 123.136C85.3597 122.301 85.5941 121.451 85.516 120.61C85.4779 120.178 85.3577 119.754 85.3657 119.321C85.3657 119.041 85.4298 118.767 85.4519 118.489C85.4702 118.18 85.4655 117.87 85.4378 117.562L85.3757 116.595C85.3156 115.641 85.2495 114.666 84.8728 113.793C84.4261 112.774 84.1616 111.685 84.0913 110.575C84.0513 109.874 84.0773 109.174 83.9972 108.471C83.925 107.837 83.7647 107.206 83.8108 106.57C83.8489 106.078 84.0112 105.601 84.0493 105.109C84.1274 104.162 83.7667 103.241 83.4842 102.335C83.2017 101.428 82.9933 100.423 83.364 99.5488C83.417 99.4052 83.5052 99.2772 83.6205 99.1765C83.7626 99.0826 83.9244 99.0223 84.0934 99.0004C87.5312 98.279 91.055 98.0546 94.5567 98.3339C95.1275 98.3662 95.6816 98.5388 96.1697 98.8363Z" fill="#3F3D56"/>
<path d="M84.7947 77.5787C86.5675 77.5787 88.0046 76.1432 88.0046 74.3724C88.0046 72.6015 86.5675 71.166 84.7947 71.166C83.0219 71.166 81.5847 72.6015 81.5847 74.3724C81.5847 76.1432 83.0219 77.5787 84.7947 77.5787Z" fill="#BE6F72"/>
<path d="M84.1735 78.3773C84.2196 78.5606 84.2196 78.7524 84.1735 78.9357C84.123 79.0638 84.052 79.1827 83.9631 79.2879C83.6524 79.6883 83.3085 80.0619 82.9352 80.4048C83.1254 80.8291 83.4678 81.1668 83.895 81.3515C84.3191 81.5318 84.764 81.6588 85.2194 81.7297C85.4468 81.7894 85.6833 81.8057 85.9167 81.7778C86.1318 81.7238 86.3354 81.6316 86.5178 81.5056L88.3011 80.4388C88.5702 80.2932 88.8194 80.1136 89.0425 79.9044C89.3696 79.5686 89.5547 79.12 89.5594 78.6515C89.5678 78.5676 89.5449 78.4835 89.4953 78.4153C89.427 78.3559 89.3412 78.3201 89.2509 78.3132C88.6237 78.1751 88.1288 77.6668 87.8483 77.0903C87.5947 76.4995 87.4306 75.8741 87.3614 75.235L85.4599 76.2357C85.1774 76.3858 84.8968 76.5359 84.6043 76.666C84.4179 76.7501 84.0413 76.8201 83.909 76.9903C83.6565 77.3045 84.1074 77.999 84.1735 78.3773Z" fill="#BE6F72"/>
<path d="M82.9472 79.8224C82.6765 80.0441 82.4651 80.3295 82.3321 80.653C82.2079 81.0533 82.3321 81.4756 82.4443 81.8719C82.9702 83.561 83.372 85.2861 83.6465 87.0336C83.8148 88.2345 83.877 89.4534 83.9591 90.6683C84.1274 93.1461 84.3719 97.097 84.6985 99.5588C85.9007 99.6128 87.0729 99.2626 88.2651 99.1345C90.4932 98.8983 92.7874 99.4387 94.9695 98.9343C94.4405 96.8468 93.9115 93.2822 93.3825 91.1967C93.1484 90.375 92.9862 89.5346 92.8976 88.6848C92.8515 88.0744 92.8796 87.4619 92.8876 86.8475C92.9056 85.6466 92.8395 84.4457 92.7734 83.2449C92.6973 81.8438 92.6211 80.4428 92.2885 79.0718C92.2653 78.8971 92.1834 78.7355 92.0561 78.6135C91.8557 78.4674 91.5952 78.5194 91.3568 78.5514C90.6267 78.644 89.8878 78.4691 89.2769 78.0591C89.0124 77.8789 88.6578 77.6588 88.4113 77.8589C88.3062 77.9796 88.2368 78.1273 88.211 78.2852C88.1019 78.5684 87.9336 78.825 87.7173 79.038C87.501 79.2509 87.2417 79.4153 86.9566 79.5201C86.3856 79.7267 85.7876 79.8494 85.1814 79.8844C84.9958 79.9242 84.8024 79.9024 84.6303 79.8224C84.3458 79.6482 84.3258 79.0218 83.9671 78.9797C83.6525 78.9437 83.1596 79.6202 82.9472 79.8224Z" fill="#3F3D56"/>
<path d="M87.688 84.7099C86.9486 84.0034 86.624 82.9786 86.085 82.108C85.718 81.5226 85.2491 81.0074 84.7005 80.5869C84.4247 80.4049 84.1717 80.1906 83.9471 79.9484C83.7567 79.7143 83.6125 79.402 83.3239 79.312C83.2047 79.286 83.081 79.2894 82.9633 79.3219C82.8457 79.3543 82.7377 79.4148 82.6487 79.4981C82.4721 79.6662 82.3048 79.844 82.1478 80.0305C81.2982 80.9091 79.8054 81.0312 79.1322 82.048C78.9506 82.2635 78.8271 82.5219 78.7735 82.7985C78.5797 84.2783 78.9628 85.776 79.8435 86.9816C80.014 87.261 80.2759 87.4731 80.5849 87.582C80.543 87.9552 80.5925 88.333 80.7291 88.6828C81.1001 89.9495 81.556 91.1899 82.0937 92.3955C81.9651 92.8671 81.8753 93.3484 81.8252 93.8346C81.6849 95.0575 81.8151 96.2984 81.6829 97.5233C81.5747 98.524 81.2822 99.4987 81.2721 100.501C81.2721 100.662 81.2862 100.852 81.4244 100.934C81.498 100.972 81.5803 100.989 81.6629 100.984L84.1274 101.058C85.5581 101.1 87.0027 101.142 88.4113 100.878C88.5989 100.85 88.7809 100.793 88.9503 100.708C89.4272 100.441 89.5855 99.841 89.6616 99.3066C89.7611 98.6134 89.8006 97.913 89.7799 97.213C90.0784 98.1557 90.4331 99.1304 91.3347 99.5387C91.8116 99.7549 92.3566 99.7389 92.8796 99.7249C94.0068 99.6747 95.1301 99.5591 96.2438 99.3786C96.3124 99.3871 96.3821 99.3795 96.4472 99.3563C96.5124 99.333 96.5712 99.2949 96.6189 99.2449C96.6666 99.1949 96.7019 99.1344 96.7221 99.0683C96.7422 99.0022 96.7465 98.9323 96.7347 98.8642L96.7467 97.7715C96.7708 95.5518 96.2198 93.4303 96.0054 91.2207C95.9372 90.5242 95.9432 89.8196 95.7729 89.1371C95.7028 88.8509 95.6006 88.5707 95.5385 88.2825C95.485 88.0003 95.4516 87.7148 95.4383 87.4279L95.282 85.2263C95.2079 84.2075 95.1017 83.2248 95.0235 82.2081C94.9806 81.218 94.8369 80.2349 94.5948 79.2739C94.4204 78.6735 94.0578 77.993 93.4306 77.9189C93.096 77.8809 92.7714 78.027 92.4528 78.1291C91.6697 78.3753 90.8293 78.3718 90.0484 78.1191C89.8071 78.0239 89.5556 77.9568 89.299 77.9189C89.1698 77.9014 89.0382 77.9184 88.9178 77.9684C88.7974 78.0183 88.6924 78.0993 88.6137 78.2031C88.536 78.3595 88.4994 78.5331 88.5075 78.7075C88.4133 80.707 88.239 82.7665 87.688 84.7099Z" fill="#15C56E"/>
<path d="M84.464 84.77C83.5403 83.7973 82.5926 82.8065 81.4024 82.1881C80.9335 81.9439 80.4005 81.7598 79.8816 81.8518C79.3626 81.9439 78.8797 82.3942 78.9038 82.9206C78.9198 83.2468 79.1182 83.5351 79.1803 83.8553C79.2524 84.2156 79.1482 84.5998 79.2604 84.9481C79.3516 85.1776 79.4879 85.3865 79.6612 85.5625L81.0798 87.2418C81.6809 87.9423 82.282 88.6528 83.0554 89.1372C83.8289 89.6215 84.8307 89.8477 85.6803 89.5034C86.2847 89.2228 86.7873 88.762 87.1189 88.1845C87.4716 87.6241 87.7201 87.0116 88.0507 86.4332C88.5652 85.509 89.2442 84.6862 90.0544 84.0054C89.6376 83.8973 89.1146 83.7452 88.8521 83.405C88.7774 83.2968 88.7137 83.1815 88.6618 83.0607L88.3372 82.3602C88.2268 82.3545 88.1164 82.3716 88.013 82.4105C87.9095 82.4494 87.8152 82.5093 87.7361 82.5864C87.5969 82.7471 87.4476 82.8988 87.2893 83.0407C87.0067 83.2529 86.624 83.3109 86.3676 83.5531C86.2683 83.657 86.1785 83.7696 86.0991 83.8893C85.9051 84.144 85.6588 84.3543 85.3769 84.5062C85.0949 84.6581 84.7836 84.748 84.464 84.77Z" fill="#3F3D56"/>
<path d="M90.1285 80.5849C90.8238 79.318 90.7917 77.7989 90.9901 76.3678C91.0116 75.9889 91.1447 75.6247 91.3728 75.3211C91.7735 74.8687 92.4808 74.8627 93.086 74.9208C93.2643 74.9408 93.4867 75.0249 93.4767 75.203C93.4626 75.2668 93.4315 75.3256 93.3865 75.3731C92.8 76.1292 92.4551 77.0443 92.3967 77.999C92.7113 78.2172 93.1982 77.7689 93.5007 77.999C93.7011 78.1671 93.6089 78.4994 93.4887 78.7396C93.2095 79.296 92.9217 79.8484 92.6251 80.3968C92.3884 80.8802 92.0797 81.3249 91.7094 81.7157C91.455 81.9599 91.1564 82.1521 90.8979 82.3922C90.2968 82.9547 89.9341 83.7492 89.313 84.2976C89.2605 84.3544 89.1895 84.3906 89.1126 84.3997C89.0336 84.3941 88.9591 84.3608 88.9022 84.3056C88.5919 84.0535 88.3346 83.7427 88.1448 83.391C87.9084 82.9547 87.9445 82.8266 88.3172 82.5183C89.0144 81.9679 89.6937 81.3775 90.1285 80.5849Z" fill="#BE6F72"/>
<path d="M83.3019 83.9093C83.4221 83.9834 83.5704 84.0674 83.7026 84.0054C83.7567 83.9728 83.8026 83.9283 83.8369 83.8753C84.066 83.57 84.257 83.238 84.4059 82.8866C84.4316 82.8369 84.4459 82.7823 84.448 82.7265C84.448 82.5984 84.3338 82.5043 84.2276 82.4302C83.6586 82.068 83.0468 81.7776 82.4062 81.5656C81.8773 81.3655 81.3242 81.1913 80.7632 81.2414C80.5524 81.2555 80.3466 81.3121 80.1583 81.4077C79.9699 81.5033 79.8029 81.636 79.6672 81.7978C79.2664 82.3122 79.9377 82.4683 80.3585 82.6544C81.3323 83.0967 82.3862 83.3529 83.3019 83.9093Z" fill="#15C56E"/>
<path opacity="0.1" d="M82.6707 87.3118C82.664 87.3575 82.6681 87.4042 82.6827 87.448C82.6973 87.4918 82.722 87.5315 82.7549 87.564C82.813 87.2798 82.7369 86.9796 82.797 86.6934C82.8851 86.2631 83.3039 85.9388 83.34 85.5065C82.5726 85.3564 82.6768 86.8475 82.6707 87.3118Z" fill="black"/>
<path opacity="0.2" d="M118 71.6604V73.6318L109.853 74.1262L109.607 72.1528L118 71.6604Z" fill="black"/>
<path d="M81.9053 74.8487C82.4142 74.4344 82.1197 73.5658 82.4643 73.0094C82.6647 72.7051 83.0033 72.545 83.3359 72.4089C83.7374 72.2213 84.1674 72.1022 84.6083 72.0567C84.8291 72.0355 85.0518 72.0642 85.2599 72.1408C85.4681 72.2174 85.6562 72.3398 85.8105 72.499C85.9408 72.6471 86.0289 72.8272 86.1511 72.9813C86.3025 73.1611 86.4998 73.2966 86.722 73.3735C86.9443 73.4503 87.1832 73.4655 87.4135 73.4177C87.68 73.3576 87.9565 73.1555 87.9384 72.8833C87.9083 72.7177 87.8237 72.5669 87.698 72.4549L87.1249 71.8205C86.4737 71.1 85.7504 70.3354 84.7946 70.1553C84.1294 70.0292 83.4481 70.2073 82.807 70.4215C82.5485 70.5075 82.258 70.6356 82.1858 70.8978C82.1377 71.0779 82.2099 71.2741 82.1678 71.4562C82.0856 71.8185 81.6208 71.9406 81.4044 72.2448C81.188 72.549 81.2541 72.9093 81.192 73.2455C81.1299 73.5818 80.9495 73.91 80.9275 74.2583C80.9135 74.4684 81.0197 74.8587 81.2561 74.9348C81.4925 75.0108 81.759 74.5985 81.9053 74.8487Z" fill="#3F3D56"/>
<path d="M87.7441 72.5951C87.5752 71.7145 87.2109 70.8829 86.6781 70.1613C86.2044 69.4871 85.5454 68.9643 84.7806 68.6562C84.3984 68.507 83.9872 68.4462 83.5781 68.4784C83.1689 68.5107 82.7724 68.6351 82.4183 68.8423C81.8926 69.2171 81.4835 69.7326 81.2381 70.3294C80.7191 71.4462 80.5268 72.8112 81.1299 73.884C81.3703 73.5918 81.7831 73.7239 82.1478 73.6178C82.6046 73.4877 82.9913 73.1835 83.4261 72.9933C84.7386 72.4149 86.3415 72.8833 87.7441 72.5951Z" fill="#FED253"/>
<path opacity="0.1" d="M81.4364 72.533C81.3904 72.1728 81.3603 71.7544 81.6168 71.4983C81.6295 71.4826 81.6458 71.4701 81.6642 71.4617C81.6826 71.4534 81.7028 71.4494 81.723 71.4502C81.7409 71.456 81.7574 71.4654 81.7715 71.4778C81.7856 71.4902 81.7971 71.5053 81.8051 71.5223C81.9532 71.7557 82.0793 72.0022 82.1818 72.2588C82.0325 72.2244 81.8763 72.2356 81.7334 72.2909C81.5905 72.3462 81.4675 72.4431 81.3803 72.569" fill="black"/>
<path opacity="0.1" d="M86.1191 71.5163L86.047 70.8018C86.0353 70.7429 86.0402 70.6819 86.061 70.6256C86.0912 70.5785 86.1378 70.5442 86.1919 70.5294C86.2459 70.5146 86.3035 70.5204 86.3535 70.5456C86.4521 70.6001 86.5334 70.6813 86.588 70.7797C86.7548 71.0355 86.8932 71.3086 87.0007 71.5943C86.678 71.5322 86.346 71.5363 86.0249 71.6063" fill="black"/>
<path opacity="0.1" d="M87.9124 100.516V102.149L86.5319 102.241H79.2704V100.516H87.9124Z" fill="black"/>
<path d="M87.9124 100.515V102.241H79.2705L56.312 73.5137V72.1567H61.1249L87.9124 100.515Z" fill="#F1C0C0"/>
<path opacity="0.1" d="M87.9124 100.515V102.241H79.2705L56.312 73.5137V72.1567H61.1249L87.9124 100.515Z" fill="black"/>
<path opacity="0.1" d="M87.9124 100.515V102.241H79.2705L56.312 73.5137V72.1567L79.3947 100.515H87.9124Z" fill="black"/>
<path d="M59.3216 129.309C59.3367 129.39 59.3349 129.473 59.3163 129.554C59.2976 129.634 59.2626 129.71 59.2133 129.776C59.164 129.842 59.1016 129.898 59.0299 129.939C58.9582 129.98 58.8788 130.006 58.7967 130.015C58.2396 130.203 57.6485 130.389 57.2538 130.816C56.8591 131.242 56.7809 132.033 57.2538 132.379C57.4955 132.524 57.773 132.6 58.0553 132.597C58.963 132.659 59.9087 132.647 60.7322 132.263C61.3213 131.991 61.8763 131.526 62.5235 131.568C62.8582 131.588 63.2148 131.744 63.5134 131.592C63.8119 131.44 63.8961 131.016 63.8981 130.662C63.9057 129.922 63.7941 129.186 63.5675 128.482C63.5374 128.386 62.2631 128.312 62.1108 128.282L60.5659 128.082C60.2734 128.044 59.6422 127.823 59.4118 128.068C59.1814 128.312 59.3216 129.018 59.3216 129.309Z" fill="#15C56E"/>
<path d="M68.5406 124.313C68.606 124.673 68.7122 125.025 68.8572 125.362C69.0716 125.906 69.3461 126.484 69.8711 126.749C70.348 126.987 70.933 126.901 71.4179 126.675C71.6203 126.591 71.7977 126.456 71.9329 126.284C72.0893 126.012 72.1592 125.699 72.1333 125.386C72.1333 124.611 72.0872 123.81 71.7325 123.122C71.428 122.522 70.897 122.005 70.889 121.341L69.0636 121.693C68.9659 121.702 68.8728 121.739 68.7951 121.799C68.7373 121.86 68.6971 121.935 68.6789 122.017C68.484 122.766 68.437 123.546 68.5406 124.313Z" fill="#15C56E"/>
<path d="M46.7424 105.299C46.6662 105.943 46.6983 106.634 47.0349 107.19C47.3715 107.747 48.0808 108.115 48.694 107.893C48.7254 107.885 48.7549 107.871 48.7807 107.851C48.8065 107.831 48.8281 107.807 48.8442 107.779C48.8606 107.711 48.8513 107.64 48.8182 107.579C48.5475 106.857 48.5698 106.058 48.8803 105.353C48.9204 105.261 49.0065 105.153 49.1007 105.189C49.1401 105.209 49.1718 105.241 49.1909 105.281C49.2879 105.449 49.3364 105.64 49.3311 105.833C49.3029 106.009 49.2975 106.187 49.3151 106.364C49.3532 106.536 49.5375 106.698 49.6978 106.624C49.7442 106.596 49.7842 106.558 49.8156 106.514C49.8469 106.469 49.8689 106.419 49.8802 106.366C50.327 105.075 50.1246 103.664 49.9202 102.313C49.9219 102.282 49.9168 102.251 49.9052 102.222C49.8936 102.193 49.8758 102.167 49.853 102.146C49.8303 102.125 49.8032 102.109 49.7736 102.099C49.744 102.09 49.7127 102.087 49.6818 102.091C48.736 101.997 48.2191 101.77 47.6781 102.649C47.2132 103.39 46.7424 104.408 46.7424 105.299Z" fill="#15C56E"/>
<path d="M57.7988 102.015C57.5183 103.179 57.2357 104.358 57.2177 105.555C57.2226 106.301 57.2789 107.045 57.386 107.783L57.5964 109.516C57.6685 110.1 57.7387 110.683 57.8409 111.261C57.9061 111.559 57.9416 111.863 57.9471 112.168C57.9274 112.469 57.8798 112.767 57.8048 113.059C57.6788 113.672 57.6084 114.294 57.5944 114.92C57.5724 115.921 57.6966 116.921 57.7747 117.922C57.9307 119.916 57.9073 121.921 57.7046 123.911C57.6237 124.448 57.7405 124.996 58.0332 125.454C58.152 125.598 58.2498 125.758 58.3238 125.93C58.474 126.388 58.1234 126.847 58.0332 127.317C57.9755 127.684 58.066 128.058 58.2846 128.359C58.5033 128.659 58.8323 128.86 59.1994 128.918C60.8023 129.108 62.4494 129.022 63.8941 129.755C64.0463 129.311 63.7137 128.806 63.866 128.354C63.9622 128.074 64.2267 127.891 64.407 127.655C64.6493 127.295 64.77 126.868 64.7516 126.434C64.7587 125.869 64.6581 125.307 64.4551 124.779C64.2848 124.339 64.0403 123.905 64.0543 123.432C64.0543 123.2 64.1365 122.956 64.0423 122.742C63.9777 122.619 63.89 122.509 63.7839 122.419C63.185 121.764 62.817 120.931 62.7359 120.048C62.6578 119.171 62.686 118.288 62.8201 117.418C62.9182 116.589 63.0505 115.715 63.5775 115.068C63.3331 113.108 63.4767 111.119 64.0002 109.214C64.0523 109.038 64.1345 108.834 64.3148 108.792C64.3865 108.784 64.4588 108.794 64.5258 108.821C64.5927 108.847 64.6523 108.889 64.6995 108.944C65.0141 109.238 65.1644 109.664 65.3007 110.072C65.4509 110.515 65.6032 110.987 65.489 111.439C65.4409 111.64 65.3447 111.816 65.2886 112.008C65.1667 112.394 65.1881 112.811 65.3487 113.183C65.4271 113.319 65.4762 113.469 65.493 113.625C65.4744 113.759 65.4338 113.889 65.3728 114.009C65.2985 114.246 65.2749 114.496 65.3035 114.743C65.3322 114.989 65.4124 115.227 65.5391 115.44C65.7945 115.865 66.1096 116.252 66.4748 116.587C66.3003 117.355 66.3455 118.157 66.6051 118.901C66.6238 118.934 66.6357 118.971 66.6402 119.009C66.6447 119.048 66.6416 119.086 66.6311 119.123C66.595 119.199 66.5029 119.227 66.4307 119.281C66.2304 119.445 66.3546 119.756 66.4889 119.97C66.8568 120.558 67.2631 121.12 67.7051 121.655C68.1058 122.133 68.0698 123.056 68.6669 123.228C68.9178 123.282 69.1774 123.282 69.4283 123.228C70.0174 123.138 70.6746 122.968 70.9631 122.448C71.0813 122.233 71.1294 121.973 71.3138 121.813C71.4981 121.653 71.7365 121.625 71.8387 121.433C71.9409 121.241 71.8267 120.988 71.8608 120.766C71.8948 120.544 72.0892 120.366 72.1513 120.132C72.2996 119.591 71.6684 119.147 71.5823 118.595C71.458 117.794 72.4679 117.194 72.4258 116.393C72.3377 114.654 72.2816 112.907 72.1914 111.167C72.0782 109.609 72.0622 108.046 72.1433 106.486C72.2134 105.515 72.3437 104.498 71.987 103.596C71.4741 102.323 70.0594 101.608 68.6909 101.472C67.3224 101.336 65.9579 101.66 64.6014 101.872C62.35 102.219 60.0627 102.267 57.7988 102.015Z" fill="#3F3D56"/>
<path d="M61.8663 82.8846C63.6391 82.8846 65.0762 81.4491 65.0762 79.6783C65.0762 77.9075 63.6391 76.4719 61.8663 76.4719C60.0935 76.4719 58.6564 77.9075 58.6564 79.6783C58.6564 81.4491 60.0935 82.8846 61.8663 82.8846Z" fill="#FBBEBE"/>
<path d="M60.5599 83.483C60.4508 83.7366 60.2675 83.9514 60.0339 84.0989C59.8004 84.2464 59.5276 84.3199 59.2515 84.3096C59.1353 84.79 59.4138 85.2743 59.7324 85.6526C60.3939 86.4216 61.2488 87.0004 62.209 87.3293C63.1691 87.6583 64.1997 87.7255 65.1945 87.524C65.5816 87.4548 65.9488 87.3017 66.2704 87.0757C66.704 86.714 66.9951 86.2105 67.092 85.6546C67.1842 85.1026 67.2104 84.5416 67.1701 83.9834C67.1814 83.8732 67.1498 83.7628 67.0819 83.6752C67.0018 83.6132 66.9028 83.5807 66.8014 83.5831C66.1242 83.5231 65.4169 83.497 64.8218 83.1648C64.2267 82.8325 63.8039 82.082 64.0904 81.4655C64.0443 81.5616 62.8742 81.6076 62.7199 81.6277C62.237 81.6957 61.7541 81.7718 61.2732 81.8598C61.0421 81.8725 60.8137 81.9156 60.594 81.9879C60.3034 82.138 60.4116 82.064 60.4797 82.3362C60.5819 82.7525 60.7322 83.0507 60.5599 83.483Z" fill="#FBBEBE"/>
<path d="M63.0024 85.4325C62.5701 85.4374 62.1388 85.3897 61.718 85.2904C61.2932 85.1912 60.9188 84.9416 60.6641 84.5878C60.5158 84.3637 60.4196 84.0815 60.1832 83.9554C59.7965 83.7552 59.3557 84.0935 59.0471 84.4037C58.7661 84.7097 58.4405 84.9715 58.0813 85.1803C57.6525 85.4064 57.1516 85.4865 56.7468 85.7527C56.4306 85.9913 56.1593 86.2841 55.9454 86.6173L53.1061 90.4801C51.966 92.0333 50.9742 93.7005 49.9583 95.3397C49.0787 96.7587 48.6178 98.3919 47.9546 99.923C47.9021 100.017 47.8803 100.125 47.8925 100.231C47.9165 100.335 48.0428 100.419 48.1309 100.359C47.8324 100.656 48.0949 101.16 48.0247 101.576C47.945 101.868 47.7787 102.128 47.5479 102.323C47.9889 102.265 48.4366 102.286 48.8703 102.385C49.3185 102.512 49.7415 102.715 50.1206 102.985C50.3631 102.947 50.341 102.517 50.5213 102.357C50.6295 102.263 50.7898 102.275 50.9321 102.247C51.4671 102.143 51.6795 101.5 52.0902 101.138C52.4329 100.836 52.9178 100.738 53.2804 100.453C53.8695 99.9911 53.9958 99.1685 54.3043 98.486C54.5668 97.9076 54.9796 97.4032 55.21 96.8108C55.3603 96.4265 55.4324 96.0102 55.6468 95.6559C55.9894 95.0835 56.6346 94.7793 57.2498 94.5051C57.6385 94.331 58.0513 94.1508 58.47 94.1788C58.448 95.1095 58.3298 96.0262 58.5321 96.9349C58.6023 97.2551 58.7005 97.5673 58.7846 97.8856C59.1673 99.3186 59.2575 100.812 59.2755 102.289C60.1961 102.078 61.1364 101.966 62.0807 101.953C62.8241 101.931 63.5654 102.027 64.3088 102.013C65.1904 101.997 66.0621 101.826 66.9437 101.766C67.8253 101.706 68.747 101.766 69.5265 102.167C69.4632 100.898 69.4987 99.6268 69.6327 98.3639L69.845 96.3745C69.893 95.7964 69.982 95.2226 70.1115 94.6572C70.2278 94.2009 70.3961 93.7605 70.5243 93.3062C70.9751 91.705 70.893 89.9958 70.8068 88.3286C70.7627 87.472 70.4321 86.6293 70.0434 85.8668C69.9027 85.5835 69.742 85.3106 69.5625 85.0502C69.0928 84.4037 68.4668 83.8866 67.7429 83.5471C67.019 83.2076 66.2209 83.0568 65.4229 83.1088C65.3209 83.1119 65.2204 83.1336 65.1263 83.1728C64.9572 83.281 64.8251 83.4381 64.7476 83.6231C64.3331 84.3674 63.7316 84.991 63.0024 85.4325Z" fill="#3F3D56"/>
<path d="M59.0431 80.741C59.1333 80.5409 59.3757 80.4668 59.524 80.3067C59.8085 80.0025 59.6803 79.5161 59.7244 79.1058C59.7965 78.5054 60.2954 78.003 60.8665 77.7889C61.4488 77.6022 62.0685 77.563 62.6698 77.6748C62.9593 77.6959 63.2389 77.7888 63.4833 77.945C63.5875 78.021 63.6837 78.1191 63.7819 78.1892C63.9608 78.2972 64.175 78.3311 64.3787 78.2836C64.5823 78.2361 64.7593 78.111 64.8719 77.935C64.1626 77.0824 63.3771 76.1817 62.2991 75.9195C61.9293 75.8441 61.5525 75.8085 61.1751 75.8134C60.6761 75.8034 60.1612 75.7954 59.7003 75.9856C59.0732 76.2437 58.6323 76.8382 58.4059 77.4786C58.2079 78.1278 58.102 78.8015 58.0914 79.4801C58.0503 79.9328 58.0503 80.3884 58.0914 80.8411C58.1688 81.4594 58.3988 82.0488 58.7606 82.5564C58.8095 82.6352 58.8787 82.6995 58.961 82.7425C59.8747 83.1428 58.969 80.9072 59.0431 80.741Z" fill="#3F3D56"/>
<path d="M64.7676 77.4406C64.6574 76.4979 63.9842 75.7194 63.2689 75.0929C62.6923 74.5497 62.0056 74.1367 61.2552 73.882C60.4998 73.6598 59.6302 73.7079 58.983 74.1582C58.462 74.5205 58.1314 75.0969 57.8769 75.6773C57.5426 76.3623 57.3771 77.1171 57.394 77.8789C57.4441 78.6355 57.8128 79.4021 58.47 79.7843C58.7065 79.4361 59.1172 79.2559 59.5119 79.1138C61.2324 78.4618 62.9868 77.9033 64.7676 77.4406Z" fill="#FED253"/>
<path opacity="0.1" d="M58.6905 77.0483C58.7546 77.0483 58.7967 77.1144 58.8287 77.1684C58.9919 77.4223 59.132 77.6902 59.2475 77.969C59.0131 78.019 58.6103 78.0751 58.4941 77.8689C58.432 77.7648 58.5061 77.0383 58.6905 77.0483Z" fill="black"/>
<path opacity="0.1" d="M63.2569 76.596C63.2088 76.642 63.1527 76.548 63.1527 76.4799V75.7034C63.1514 75.6818 63.1562 75.6602 63.1667 75.6413C63.175 75.6318 63.1851 75.6241 63.1965 75.6186C63.2079 75.6131 63.2202 75.6099 63.2328 75.6093C63.3951 75.5913 63.5294 75.7294 63.6336 75.8615C63.7917 76.0756 63.9292 76.3041 64.0443 76.544L63.1968 76.5179" fill="black"/>
<path d="M73.8344 89.4554C74.0188 89.2806 74.2157 89.1194 74.4235 88.9731C74.9785 88.6028 75.6498 88.4567 76.2729 88.2205C76.896 87.9843 77.5292 87.6021 77.7717 86.9816C77.893 86.5936 77.9326 86.1847 77.8879 85.7807C77.8937 85.6116 77.8637 85.4431 77.7997 85.2864C77.7234 85.1479 77.6148 85.0298 77.4831 84.9421C76.6376 84.3177 75.5035 84.2676 74.4535 84.3317C72.1388 84.4751 69.8699 85.0408 67.7592 86.0009C67.6476 86.0377 67.5498 86.1075 67.4787 86.201C67.4376 86.2878 67.419 86.3834 67.4246 86.4792C67.3872 87.0695 67.4641 87.6613 67.651 88.2225C67.9275 88.935 68.4966 89.5095 68.735 90.236C68.8432 90.5622 68.8793 90.9085 68.9734 91.2367C69.0507 91.5757 69.2514 91.8739 69.5365 92.0733C70.3279 92.5457 71.0753 91.9112 71.6243 91.4189L73.8344 89.4554Z" fill="#3F3D56"/>
<path d="M63.4693 92.2274L62.4534 90.0138C62.3044 89.7071 62.1759 89.3908 62.0687 89.0671C61.9525 88.6809 61.8964 88.2806 61.7882 87.8923C61.4315 86.5993 60.5318 85.5225 60.093 84.2556C60.0653 84.1412 60.0087 84.0358 59.9287 83.9494C59.8647 83.9041 59.7914 83.8735 59.7142 83.8597C59.637 83.8458 59.5577 83.8491 59.4819 83.8693C58.8688 83.9754 58.3899 84.4418 57.8288 84.706C57.5684 84.826 57.2878 84.9061 57.0274 85.0442C56.8972 85.1058 56.7818 85.1947 56.6891 85.3049C56.5964 85.4151 56.5287 85.5439 56.4904 85.6827C56.4283 85.9889 56.5805 86.2831 56.7088 86.5813C57.2538 87.8102 57.378 89.1832 57.4021 90.5282C57.4201 91.4329 57.374 92.4036 56.839 93.1301C55.8111 94.5311 56.4683 96.5886 56.853 98.2839C56.8991 98.484 56.9532 98.7002 56.9853 98.9123C57.0192 99.1778 57.0346 99.4453 57.0314 99.7129C57.0314 100.612 56.9813 101.538 56.6046 102.353C56.9765 102.55 57.3864 102.666 57.8068 102.693C58.9703 102.841 60.1384 102.945 61.3113 103.005C61.6787 103.04 62.0493 103.021 62.4113 102.949C62.8413 102.833 63.2202 102.577 63.4884 102.222C63.7565 101.867 63.8986 101.433 63.892 100.988C63.9562 101.542 64.0744 102.145 64.4771 102.529C64.8799 102.913 65.467 102.971 66.014 103.001C67.5578 103.083 69.1057 103.04 70.6425 102.871C70.7406 102.867 70.8371 102.844 70.927 102.805C71.2236 102.657 71.2396 102.249 71.2156 101.921C71.1715 101.306 71.1254 100.692 71.0513 100.081C70.9884 99.692 70.9563 99.2985 70.9551 98.9043C70.9856 98.4988 71.0527 98.0969 71.1555 97.7034C71.424 96.4545 71.6364 95.1796 71.5462 93.9007C71.5106 93.5891 71.4978 93.2754 71.5081 92.962C71.5602 92.2555 71.9329 91.583 71.8628 90.8805C71.6624 88.815 71.5001 86.6954 70.923 84.7019C70.8188 84.3457 70.6866 83.9634 70.376 83.7593C69.9753 83.4911 69.4122 83.6312 68.9534 83.461C68.7381 83.361 68.5334 83.2396 68.3423 83.0988C67.9271 82.8394 67.4511 82.6931 66.9617 82.6745C66.593 82.6605 66.1823 82.7425 65.9599 83.0387C65.8569 83.2055 65.7887 83.3914 65.7595 83.5851C65.469 84.806 65.1283 86.0129 64.7877 87.2198L64.4611 88.3766L63.5855 91.4829C63.4993 91.8131 63.5574 91.9152 63.4693 92.2274Z" fill="#15C56E"/>
<path d="M68.5927 80.1086L87.9745 100.453V102.179H79.3326L64.7676 83.1908" fill="#F1C0C0"/>
<path opacity="0.1" d="M68.5927 80.1086L87.9745 100.453V102.179H79.3326L64.7676 83.1908" fill="black"/>
<path opacity="0.1" d="M65.0762 82.9226L65.1383 82.9446L79.4568 100.453H87.9745V102.179H79.3326L64.7676 83.1908L65.0762 82.9226Z" fill="black"/>
<path d="M67.3064 83.3509C66.6051 83.6572 65.8256 84.0494 65.6152 84.786C65.5737 84.9152 65.5648 85.0527 65.5892 85.1863C65.6405 85.3433 65.7382 85.4811 65.8695 85.5815C66.0007 85.6819 66.1594 85.7402 66.3246 85.7487C66.6545 85.7567 66.9826 85.6967 67.2883 85.5726L71.426 84.2076C71.5382 84.1715 71.6664 84.1175 71.6945 84.0074C71.7017 83.9382 71.6877 83.8684 71.6544 83.8073C71.5262 83.495 71.3999 82.8566 71.1314 82.6384C70.911 82.4623 70.4742 82.5243 70.2077 82.5283C69.1818 82.5363 68.2181 82.9506 67.3064 83.3509Z" fill="#15C56E"/>
<path d="M70.9951 84.3697C71.6922 84.3676 72.3853 84.475 73.0489 84.6879C73.7156 84.9041 74.3061 85.307 74.7501 85.8488C74.8794 86.0002 74.9713 86.1798 75.0186 86.3731C75.0586 86.5733 75.7119 86.6934 75.5676 86.8295C76.0064 86.7594 75.9022 86.9656 76.347 86.9616C76.7918 86.9576 77.2727 86.8435 77.5392 86.4892C77.7244 86.1982 77.8069 85.8537 77.7737 85.5105C77.7795 85.2729 77.7344 85.0368 77.6414 84.818C77.441 84.3977 76.9802 84.1715 76.5554 83.9774L72.9768 82.3422C72.7692 82.2319 72.5464 82.153 72.3156 82.108C72.1213 82.0897 71.9256 82.0944 71.7325 82.122L70.1115 82.3082C70.466 82.5373 70.7546 82.8548 70.9489 83.2292C71.1432 83.6037 71.2365 84.0223 71.2196 84.4437" fill="#3F3D56"/>
</g>
<defs>
<clipPath id="clip0_7_178">
<rect width="236" height="145" fill="white"/>
</clipPath>
</defs>
</svg>
